G04 MADE WITH FRITZING*
G04 WWW.FRITZING.ORG*
G04 DOUBLE SIDED*
G04 HOLES PLATED*
G04 CONTOUR ON CENTER OF CONTOUR VECTOR*
%ASAXBY*%
%FSLAX23Y23*%
%MOIN*%
%OFA0B0*%
%SFA1.0B1.0*%
%ADD10C,0.010000*%
%ADD11R,0.001000X0.001000*%
%LNSILK1*%
G90*
G70*
G54D10*
X790Y302D02*
X290Y302D01*
D02*
X290Y302D02*
X290Y202D01*
D02*
X290Y202D02*
X790Y202D01*
D02*
X790Y202D02*
X790Y302D01*
D02*
X790Y131D02*
X290Y131D01*
D02*
X290Y131D02*
X290Y31D01*
D02*
X290Y31D02*
X790Y31D01*
D02*
X790Y31D02*
X790Y131D01*
G54D11*
X0Y368D02*
X1081Y368D01*
X0Y367D02*
X1081Y367D01*
X0Y366D02*
X1081Y366D01*
X0Y365D02*
X1081Y365D01*
X0Y364D02*
X1081Y364D01*
X0Y363D02*
X1081Y363D01*
X0Y362D02*
X1081Y362D01*
X0Y361D02*
X1081Y361D01*
X0Y360D02*
X7Y360D01*
X1074Y360D02*
X1081Y360D01*
X0Y359D02*
X7Y359D01*
X1074Y359D02*
X1081Y359D01*
X0Y358D02*
X7Y358D01*
X1074Y358D02*
X1081Y358D01*
X0Y357D02*
X7Y357D01*
X1074Y357D02*
X1081Y357D01*
X0Y356D02*
X7Y356D01*
X1074Y356D02*
X1081Y356D01*
X0Y355D02*
X7Y355D01*
X1074Y355D02*
X1081Y355D01*
X0Y354D02*
X7Y354D01*
X1074Y354D02*
X1081Y354D01*
X0Y353D02*
X7Y353D01*
X1074Y353D02*
X1081Y353D01*
X0Y352D02*
X7Y352D01*
X1074Y352D02*
X1081Y352D01*
X0Y351D02*
X7Y351D01*
X1074Y351D02*
X1081Y351D01*
X0Y350D02*
X7Y350D01*
X1074Y350D02*
X1081Y350D01*
X0Y349D02*
X7Y349D01*
X1074Y349D02*
X1081Y349D01*
X0Y348D02*
X7Y348D01*
X1074Y348D02*
X1081Y348D01*
X0Y347D02*
X7Y347D01*
X1074Y347D02*
X1081Y347D01*
X0Y346D02*
X7Y346D01*
X1074Y346D02*
X1081Y346D01*
X0Y345D02*
X7Y345D01*
X1074Y345D02*
X1081Y345D01*
X0Y344D02*
X7Y344D01*
X1074Y344D02*
X1081Y344D01*
X0Y343D02*
X7Y343D01*
X1074Y343D02*
X1081Y343D01*
X0Y342D02*
X7Y342D01*
X1074Y342D02*
X1081Y342D01*
X0Y341D02*
X7Y341D01*
X1074Y341D02*
X1081Y341D01*
X0Y340D02*
X7Y340D01*
X1074Y340D02*
X1081Y340D01*
X0Y339D02*
X7Y339D01*
X1074Y339D02*
X1081Y339D01*
X0Y338D02*
X7Y338D01*
X1074Y338D02*
X1081Y338D01*
X0Y337D02*
X7Y337D01*
X1074Y337D02*
X1081Y337D01*
X0Y336D02*
X7Y336D01*
X1074Y336D02*
X1081Y336D01*
X0Y335D02*
X7Y335D01*
X1074Y335D02*
X1081Y335D01*
X0Y334D02*
X7Y334D01*
X1074Y334D02*
X1081Y334D01*
X0Y333D02*
X7Y333D01*
X1074Y333D02*
X1081Y333D01*
X0Y332D02*
X7Y332D01*
X1074Y332D02*
X1081Y332D01*
X0Y331D02*
X7Y331D01*
X1074Y331D02*
X1081Y331D01*
X0Y330D02*
X7Y330D01*
X1074Y330D02*
X1081Y330D01*
X0Y329D02*
X7Y329D01*
X1074Y329D02*
X1081Y329D01*
X0Y328D02*
X7Y328D01*
X1074Y328D02*
X1081Y328D01*
X0Y327D02*
X7Y327D01*
X1074Y327D02*
X1081Y327D01*
X0Y326D02*
X7Y326D01*
X1074Y326D02*
X1081Y326D01*
X0Y325D02*
X7Y325D01*
X1074Y325D02*
X1081Y325D01*
X0Y324D02*
X7Y324D01*
X1074Y324D02*
X1081Y324D01*
X0Y323D02*
X7Y323D01*
X1074Y323D02*
X1081Y323D01*
X0Y322D02*
X7Y322D01*
X1074Y322D02*
X1081Y322D01*
X0Y321D02*
X7Y321D01*
X1074Y321D02*
X1081Y321D01*
X0Y320D02*
X7Y320D01*
X1074Y320D02*
X1081Y320D01*
X0Y319D02*
X7Y319D01*
X1074Y319D02*
X1081Y319D01*
X0Y318D02*
X7Y318D01*
X1074Y318D02*
X1081Y318D01*
X0Y317D02*
X7Y317D01*
X1074Y317D02*
X1081Y317D01*
X0Y316D02*
X7Y316D01*
X1074Y316D02*
X1081Y316D01*
X0Y315D02*
X7Y315D01*
X1074Y315D02*
X1081Y315D01*
X0Y314D02*
X7Y314D01*
X1074Y314D02*
X1081Y314D01*
X0Y313D02*
X7Y313D01*
X1074Y313D02*
X1081Y313D01*
X0Y312D02*
X7Y312D01*
X1074Y312D02*
X1081Y312D01*
X0Y311D02*
X7Y311D01*
X1074Y311D02*
X1081Y311D01*
X0Y310D02*
X7Y310D01*
X1074Y310D02*
X1081Y310D01*
X0Y309D02*
X7Y309D01*
X1074Y309D02*
X1081Y309D01*
X0Y308D02*
X7Y308D01*
X1074Y308D02*
X1081Y308D01*
X0Y307D02*
X7Y307D01*
X1074Y307D02*
X1081Y307D01*
X0Y306D02*
X7Y306D01*
X1074Y306D02*
X1081Y306D01*
X0Y305D02*
X7Y305D01*
X1074Y305D02*
X1081Y305D01*
X0Y304D02*
X7Y304D01*
X756Y304D02*
X756Y304D01*
X1074Y304D02*
X1081Y304D01*
X0Y303D02*
X7Y303D01*
X755Y303D02*
X757Y303D01*
X1074Y303D02*
X1081Y303D01*
X0Y302D02*
X7Y302D01*
X754Y302D02*
X758Y302D01*
X1074Y302D02*
X1081Y302D01*
X0Y301D02*
X7Y301D01*
X753Y301D02*
X759Y301D01*
X1074Y301D02*
X1081Y301D01*
X0Y300D02*
X7Y300D01*
X754Y300D02*
X760Y300D01*
X1074Y300D02*
X1081Y300D01*
X0Y299D02*
X7Y299D01*
X755Y299D02*
X761Y299D01*
X1074Y299D02*
X1081Y299D01*
X0Y298D02*
X7Y298D01*
X756Y298D02*
X762Y298D01*
X1074Y298D02*
X1081Y298D01*
X0Y297D02*
X7Y297D01*
X757Y297D02*
X763Y297D01*
X1074Y297D02*
X1081Y297D01*
X0Y296D02*
X7Y296D01*
X758Y296D02*
X764Y296D01*
X1074Y296D02*
X1081Y296D01*
X0Y295D02*
X7Y295D01*
X759Y295D02*
X765Y295D01*
X1074Y295D02*
X1081Y295D01*
X0Y294D02*
X7Y294D01*
X760Y294D02*
X766Y294D01*
X1074Y294D02*
X1081Y294D01*
X0Y293D02*
X7Y293D01*
X761Y293D02*
X767Y293D01*
X1074Y293D02*
X1081Y293D01*
X0Y292D02*
X7Y292D01*
X762Y292D02*
X768Y292D01*
X1074Y292D02*
X1081Y292D01*
X0Y291D02*
X7Y291D01*
X763Y291D02*
X769Y291D01*
X1074Y291D02*
X1081Y291D01*
X0Y290D02*
X7Y290D01*
X764Y290D02*
X770Y290D01*
X1074Y290D02*
X1081Y290D01*
X0Y289D02*
X7Y289D01*
X766Y289D02*
X771Y289D01*
X1074Y289D02*
X1081Y289D01*
X0Y288D02*
X7Y288D01*
X767Y288D02*
X772Y288D01*
X1074Y288D02*
X1081Y288D01*
X0Y287D02*
X7Y287D01*
X768Y287D02*
X773Y287D01*
X1074Y287D02*
X1081Y287D01*
X0Y286D02*
X7Y286D01*
X769Y286D02*
X774Y286D01*
X1074Y286D02*
X1081Y286D01*
X0Y285D02*
X7Y285D01*
X771Y285D02*
X775Y285D01*
X1074Y285D02*
X1081Y285D01*
X0Y284D02*
X7Y284D01*
X772Y284D02*
X776Y284D01*
X1074Y284D02*
X1081Y284D01*
X0Y283D02*
X7Y283D01*
X773Y283D02*
X777Y283D01*
X1074Y283D02*
X1081Y283D01*
X0Y282D02*
X7Y282D01*
X773Y282D02*
X778Y282D01*
X1074Y282D02*
X1081Y282D01*
X0Y281D02*
X7Y281D01*
X774Y281D02*
X779Y281D01*
X1074Y281D02*
X1081Y281D01*
X0Y280D02*
X7Y280D01*
X775Y280D02*
X780Y280D01*
X1074Y280D02*
X1081Y280D01*
X0Y279D02*
X7Y279D01*
X776Y279D02*
X781Y279D01*
X1074Y279D02*
X1081Y279D01*
X0Y278D02*
X7Y278D01*
X776Y278D02*
X782Y278D01*
X1074Y278D02*
X1081Y278D01*
X0Y277D02*
X7Y277D01*
X777Y277D02*
X783Y277D01*
X1074Y277D02*
X1081Y277D01*
X0Y276D02*
X7Y276D01*
X778Y276D02*
X784Y276D01*
X1074Y276D02*
X1081Y276D01*
X0Y275D02*
X7Y275D01*
X779Y275D02*
X785Y275D01*
X1074Y275D02*
X1081Y275D01*
X0Y274D02*
X7Y274D01*
X780Y274D02*
X786Y274D01*
X1074Y274D02*
X1081Y274D01*
X0Y273D02*
X7Y273D01*
X781Y273D02*
X787Y273D01*
X1074Y273D02*
X1081Y273D01*
X0Y272D02*
X7Y272D01*
X782Y272D02*
X788Y272D01*
X1074Y272D02*
X1081Y272D01*
X0Y271D02*
X7Y271D01*
X783Y271D02*
X789Y271D01*
X1074Y271D02*
X1081Y271D01*
X0Y270D02*
X7Y270D01*
X784Y270D02*
X790Y270D01*
X1074Y270D02*
X1081Y270D01*
X0Y269D02*
X7Y269D01*
X785Y269D02*
X790Y269D01*
X1074Y269D02*
X1081Y269D01*
X0Y268D02*
X7Y268D01*
X786Y268D02*
X789Y268D01*
X1074Y268D02*
X1081Y268D01*
X0Y267D02*
X7Y267D01*
X787Y267D02*
X788Y267D01*
X1074Y267D02*
X1081Y267D01*
X0Y266D02*
X7Y266D01*
X1074Y266D02*
X1081Y266D01*
X0Y265D02*
X7Y265D01*
X1074Y265D02*
X1081Y265D01*
X0Y264D02*
X7Y264D01*
X1074Y264D02*
X1081Y264D01*
X0Y263D02*
X7Y263D01*
X1074Y263D02*
X1081Y263D01*
X0Y262D02*
X7Y262D01*
X1074Y262D02*
X1081Y262D01*
X0Y261D02*
X7Y261D01*
X1074Y261D02*
X1081Y261D01*
X0Y260D02*
X7Y260D01*
X1074Y260D02*
X1081Y260D01*
X0Y259D02*
X7Y259D01*
X1074Y259D02*
X1081Y259D01*
X0Y258D02*
X7Y258D01*
X1074Y258D02*
X1081Y258D01*
X0Y257D02*
X7Y257D01*
X1074Y257D02*
X1081Y257D01*
X0Y256D02*
X7Y256D01*
X1074Y256D02*
X1081Y256D01*
X0Y255D02*
X7Y255D01*
X1074Y255D02*
X1081Y255D01*
X0Y254D02*
X7Y254D01*
X1074Y254D02*
X1081Y254D01*
X0Y253D02*
X7Y253D01*
X1074Y253D02*
X1081Y253D01*
X0Y252D02*
X7Y252D01*
X1074Y252D02*
X1081Y252D01*
X0Y251D02*
X7Y251D01*
X1074Y251D02*
X1081Y251D01*
X0Y250D02*
X7Y250D01*
X1074Y250D02*
X1081Y250D01*
X0Y249D02*
X7Y249D01*
X1074Y249D02*
X1081Y249D01*
X0Y248D02*
X7Y248D01*
X1074Y248D02*
X1081Y248D01*
X0Y247D02*
X7Y247D01*
X1074Y247D02*
X1081Y247D01*
X0Y246D02*
X7Y246D01*
X1074Y246D02*
X1081Y246D01*
X0Y245D02*
X7Y245D01*
X1074Y245D02*
X1081Y245D01*
X0Y244D02*
X7Y244D01*
X1074Y244D02*
X1081Y244D01*
X0Y243D02*
X7Y243D01*
X1074Y243D02*
X1081Y243D01*
X0Y242D02*
X7Y242D01*
X1074Y242D02*
X1081Y242D01*
X0Y241D02*
X7Y241D01*
X1074Y241D02*
X1081Y241D01*
X0Y240D02*
X7Y240D01*
X1074Y240D02*
X1081Y240D01*
X0Y239D02*
X7Y239D01*
X1074Y239D02*
X1081Y239D01*
X0Y238D02*
X7Y238D01*
X1074Y238D02*
X1081Y238D01*
X0Y237D02*
X7Y237D01*
X1074Y237D02*
X1081Y237D01*
X0Y236D02*
X7Y236D01*
X1074Y236D02*
X1081Y236D01*
X0Y235D02*
X7Y235D01*
X1074Y235D02*
X1081Y235D01*
X0Y234D02*
X7Y234D01*
X1074Y234D02*
X1081Y234D01*
X0Y233D02*
X7Y233D01*
X1074Y233D02*
X1081Y233D01*
X0Y232D02*
X7Y232D01*
X1074Y232D02*
X1081Y232D01*
X0Y231D02*
X7Y231D01*
X1074Y231D02*
X1081Y231D01*
X0Y230D02*
X7Y230D01*
X1074Y230D02*
X1081Y230D01*
X0Y229D02*
X7Y229D01*
X1074Y229D02*
X1081Y229D01*
X0Y228D02*
X7Y228D01*
X1074Y228D02*
X1081Y228D01*
X0Y227D02*
X7Y227D01*
X1074Y227D02*
X1081Y227D01*
X0Y226D02*
X7Y226D01*
X1074Y226D02*
X1081Y226D01*
X0Y225D02*
X7Y225D01*
X1074Y225D02*
X1081Y225D01*
X0Y224D02*
X7Y224D01*
X1074Y224D02*
X1081Y224D01*
X0Y223D02*
X7Y223D01*
X1074Y223D02*
X1081Y223D01*
X0Y222D02*
X7Y222D01*
X1074Y222D02*
X1081Y222D01*
X0Y221D02*
X7Y221D01*
X1074Y221D02*
X1081Y221D01*
X0Y220D02*
X7Y220D01*
X1074Y220D02*
X1081Y220D01*
X0Y219D02*
X7Y219D01*
X1074Y219D02*
X1081Y219D01*
X0Y218D02*
X7Y218D01*
X1074Y218D02*
X1081Y218D01*
X0Y217D02*
X7Y217D01*
X1074Y217D02*
X1081Y217D01*
X0Y216D02*
X7Y216D01*
X1074Y216D02*
X1081Y216D01*
X0Y215D02*
X7Y215D01*
X1074Y215D02*
X1081Y215D01*
X0Y214D02*
X7Y214D01*
X1074Y214D02*
X1081Y214D01*
X0Y213D02*
X7Y213D01*
X1074Y213D02*
X1081Y213D01*
X0Y212D02*
X7Y212D01*
X1074Y212D02*
X1081Y212D01*
X0Y211D02*
X7Y211D01*
X1074Y211D02*
X1081Y211D01*
X0Y210D02*
X7Y210D01*
X1074Y210D02*
X1081Y210D01*
X0Y209D02*
X7Y209D01*
X1074Y209D02*
X1081Y209D01*
X0Y208D02*
X7Y208D01*
X1074Y208D02*
X1081Y208D01*
X0Y207D02*
X7Y207D01*
X1074Y207D02*
X1081Y207D01*
X0Y206D02*
X7Y206D01*
X1074Y206D02*
X1081Y206D01*
X0Y205D02*
X7Y205D01*
X1074Y205D02*
X1081Y205D01*
X0Y204D02*
X7Y204D01*
X1074Y204D02*
X1081Y204D01*
X0Y203D02*
X7Y203D01*
X1074Y203D02*
X1081Y203D01*
X0Y202D02*
X7Y202D01*
X1074Y202D02*
X1081Y202D01*
X0Y201D02*
X7Y201D01*
X1074Y201D02*
X1081Y201D01*
X0Y200D02*
X7Y200D01*
X1074Y200D02*
X1081Y200D01*
X0Y199D02*
X7Y199D01*
X1074Y199D02*
X1081Y199D01*
X0Y198D02*
X7Y198D01*
X1074Y198D02*
X1081Y198D01*
X0Y197D02*
X7Y197D01*
X1074Y197D02*
X1081Y197D01*
X0Y196D02*
X7Y196D01*
X1074Y196D02*
X1081Y196D01*
X0Y195D02*
X7Y195D01*
X1074Y195D02*
X1081Y195D01*
X0Y194D02*
X7Y194D01*
X1074Y194D02*
X1081Y194D01*
X0Y193D02*
X7Y193D01*
X1074Y193D02*
X1081Y193D01*
X0Y192D02*
X7Y192D01*
X1074Y192D02*
X1081Y192D01*
X0Y191D02*
X7Y191D01*
X1074Y191D02*
X1081Y191D01*
X0Y190D02*
X7Y190D01*
X1074Y190D02*
X1081Y190D01*
X0Y189D02*
X7Y189D01*
X1074Y189D02*
X1081Y189D01*
X0Y188D02*
X7Y188D01*
X1074Y188D02*
X1081Y188D01*
X0Y187D02*
X7Y187D01*
X1074Y187D02*
X1081Y187D01*
X0Y186D02*
X7Y186D01*
X1074Y186D02*
X1081Y186D01*
X0Y185D02*
X7Y185D01*
X1074Y185D02*
X1081Y185D01*
X0Y184D02*
X7Y184D01*
X1074Y184D02*
X1081Y184D01*
X0Y183D02*
X7Y183D01*
X1074Y183D02*
X1081Y183D01*
X0Y182D02*
X7Y182D01*
X1074Y182D02*
X1081Y182D01*
X0Y181D02*
X7Y181D01*
X1074Y181D02*
X1081Y181D01*
X0Y180D02*
X7Y180D01*
X1074Y180D02*
X1081Y180D01*
X0Y179D02*
X7Y179D01*
X1074Y179D02*
X1081Y179D01*
X0Y178D02*
X7Y178D01*
X1074Y178D02*
X1081Y178D01*
X0Y177D02*
X7Y177D01*
X1074Y177D02*
X1081Y177D01*
X0Y176D02*
X7Y176D01*
X1074Y176D02*
X1081Y176D01*
X0Y175D02*
X7Y175D01*
X1074Y175D02*
X1081Y175D01*
X0Y174D02*
X7Y174D01*
X1074Y174D02*
X1081Y174D01*
X0Y173D02*
X7Y173D01*
X1074Y173D02*
X1081Y173D01*
X0Y172D02*
X7Y172D01*
X1074Y172D02*
X1081Y172D01*
X0Y171D02*
X7Y171D01*
X1074Y171D02*
X1081Y171D01*
X0Y170D02*
X7Y170D01*
X1074Y170D02*
X1081Y170D01*
X0Y169D02*
X7Y169D01*
X1074Y169D02*
X1081Y169D01*
X0Y168D02*
X7Y168D01*
X1074Y168D02*
X1081Y168D01*
X0Y167D02*
X7Y167D01*
X1074Y167D02*
X1081Y167D01*
X0Y166D02*
X7Y166D01*
X1074Y166D02*
X1081Y166D01*
X0Y165D02*
X7Y165D01*
X1074Y165D02*
X1081Y165D01*
X0Y164D02*
X7Y164D01*
X1074Y164D02*
X1081Y164D01*
X0Y163D02*
X7Y163D01*
X1074Y163D02*
X1081Y163D01*
X0Y162D02*
X7Y162D01*
X1074Y162D02*
X1081Y162D01*
X0Y161D02*
X7Y161D01*
X1074Y161D02*
X1081Y161D01*
X0Y160D02*
X7Y160D01*
X1074Y160D02*
X1081Y160D01*
X0Y159D02*
X7Y159D01*
X1074Y159D02*
X1081Y159D01*
X0Y158D02*
X7Y158D01*
X1074Y158D02*
X1081Y158D01*
X0Y157D02*
X7Y157D01*
X1074Y157D02*
X1081Y157D01*
X0Y156D02*
X7Y156D01*
X1074Y156D02*
X1081Y156D01*
X0Y155D02*
X7Y155D01*
X1074Y155D02*
X1081Y155D01*
X0Y154D02*
X7Y154D01*
X1074Y154D02*
X1081Y154D01*
X0Y153D02*
X7Y153D01*
X1074Y153D02*
X1081Y153D01*
X0Y152D02*
X7Y152D01*
X1074Y152D02*
X1081Y152D01*
X0Y151D02*
X7Y151D01*
X1074Y151D02*
X1081Y151D01*
X0Y150D02*
X7Y150D01*
X1074Y150D02*
X1081Y150D01*
X0Y149D02*
X7Y149D01*
X1074Y149D02*
X1081Y149D01*
X0Y148D02*
X7Y148D01*
X1074Y148D02*
X1081Y148D01*
X0Y147D02*
X7Y147D01*
X1074Y147D02*
X1081Y147D01*
X0Y146D02*
X7Y146D01*
X1074Y146D02*
X1081Y146D01*
X0Y145D02*
X7Y145D01*
X1074Y145D02*
X1081Y145D01*
X0Y144D02*
X7Y144D01*
X1074Y144D02*
X1081Y144D01*
X0Y143D02*
X7Y143D01*
X1074Y143D02*
X1081Y143D01*
X0Y142D02*
X7Y142D01*
X1074Y142D02*
X1081Y142D01*
X0Y141D02*
X7Y141D01*
X1074Y141D02*
X1081Y141D01*
X0Y140D02*
X7Y140D01*
X1074Y140D02*
X1081Y140D01*
X0Y139D02*
X7Y139D01*
X1074Y139D02*
X1081Y139D01*
X0Y138D02*
X7Y138D01*
X1074Y138D02*
X1081Y138D01*
X0Y137D02*
X7Y137D01*
X1074Y137D02*
X1081Y137D01*
X0Y136D02*
X7Y136D01*
X1074Y136D02*
X1081Y136D01*
X0Y135D02*
X7Y135D01*
X1074Y135D02*
X1081Y135D01*
X0Y134D02*
X7Y134D01*
X1074Y134D02*
X1081Y134D01*
X0Y133D02*
X7Y133D01*
X755Y133D02*
X756Y133D01*
X1074Y133D02*
X1081Y133D01*
X0Y132D02*
X7Y132D01*
X754Y132D02*
X757Y132D01*
X1074Y132D02*
X1081Y132D01*
X0Y131D02*
X7Y131D01*
X753Y131D02*
X758Y131D01*
X1074Y131D02*
X1081Y131D01*
X0Y130D02*
X7Y130D01*
X753Y130D02*
X759Y130D01*
X1074Y130D02*
X1081Y130D01*
X0Y129D02*
X7Y129D01*
X754Y129D02*
X760Y129D01*
X1074Y129D02*
X1081Y129D01*
X0Y128D02*
X7Y128D01*
X755Y128D02*
X761Y128D01*
X1074Y128D02*
X1081Y128D01*
X0Y127D02*
X7Y127D01*
X756Y127D02*
X762Y127D01*
X1074Y127D02*
X1081Y127D01*
X0Y126D02*
X7Y126D01*
X757Y126D02*
X763Y126D01*
X1074Y126D02*
X1081Y126D01*
X0Y125D02*
X7Y125D01*
X758Y125D02*
X764Y125D01*
X1074Y125D02*
X1081Y125D01*
X0Y124D02*
X7Y124D01*
X759Y124D02*
X765Y124D01*
X1074Y124D02*
X1081Y124D01*
X0Y123D02*
X7Y123D01*
X760Y123D02*
X766Y123D01*
X1074Y123D02*
X1081Y123D01*
X0Y122D02*
X7Y122D01*
X761Y122D02*
X767Y122D01*
X1074Y122D02*
X1081Y122D01*
X0Y121D02*
X7Y121D01*
X762Y121D02*
X768Y121D01*
X1074Y121D02*
X1081Y121D01*
X0Y120D02*
X7Y120D01*
X763Y120D02*
X769Y120D01*
X1074Y120D02*
X1081Y120D01*
X0Y119D02*
X7Y119D01*
X765Y119D02*
X770Y119D01*
X1074Y119D02*
X1081Y119D01*
X0Y118D02*
X7Y118D01*
X766Y118D02*
X771Y118D01*
X1074Y118D02*
X1081Y118D01*
X0Y117D02*
X7Y117D01*
X768Y117D02*
X772Y117D01*
X1074Y117D02*
X1081Y117D01*
X0Y116D02*
X7Y116D01*
X769Y116D02*
X773Y116D01*
X1074Y116D02*
X1081Y116D01*
X0Y115D02*
X7Y115D01*
X770Y115D02*
X774Y115D01*
X1074Y115D02*
X1081Y115D01*
X0Y114D02*
X7Y114D01*
X771Y114D02*
X775Y114D01*
X1074Y114D02*
X1081Y114D01*
X0Y113D02*
X7Y113D01*
X772Y113D02*
X776Y113D01*
X1074Y113D02*
X1081Y113D01*
X0Y112D02*
X7Y112D01*
X773Y112D02*
X777Y112D01*
X1074Y112D02*
X1081Y112D01*
X0Y111D02*
X7Y111D01*
X774Y111D02*
X778Y111D01*
X1074Y111D02*
X1081Y111D01*
X0Y110D02*
X7Y110D01*
X775Y110D02*
X779Y110D01*
X1074Y110D02*
X1081Y110D01*
X0Y109D02*
X7Y109D01*
X775Y109D02*
X780Y109D01*
X1074Y109D02*
X1081Y109D01*
X0Y108D02*
X7Y108D01*
X776Y108D02*
X781Y108D01*
X1074Y108D02*
X1081Y108D01*
X0Y107D02*
X7Y107D01*
X777Y107D02*
X782Y107D01*
X1074Y107D02*
X1081Y107D01*
X0Y106D02*
X7Y106D01*
X777Y106D02*
X783Y106D01*
X1074Y106D02*
X1081Y106D01*
X0Y105D02*
X7Y105D01*
X778Y105D02*
X784Y105D01*
X1074Y105D02*
X1081Y105D01*
X0Y104D02*
X7Y104D01*
X779Y104D02*
X785Y104D01*
X1074Y104D02*
X1081Y104D01*
X0Y103D02*
X7Y103D01*
X780Y103D02*
X786Y103D01*
X1074Y103D02*
X1081Y103D01*
X0Y102D02*
X7Y102D01*
X781Y102D02*
X787Y102D01*
X1074Y102D02*
X1081Y102D01*
X0Y101D02*
X7Y101D01*
X782Y101D02*
X789Y101D01*
X1074Y101D02*
X1081Y101D01*
X0Y100D02*
X7Y100D01*
X783Y100D02*
X790Y100D01*
X1074Y100D02*
X1081Y100D01*
X0Y99D02*
X7Y99D01*
X784Y99D02*
X790Y99D01*
X1074Y99D02*
X1081Y99D01*
X0Y98D02*
X7Y98D01*
X785Y98D02*
X789Y98D01*
X1074Y98D02*
X1081Y98D01*
X0Y97D02*
X7Y97D01*
X786Y97D02*
X788Y97D01*
X1074Y97D02*
X1081Y97D01*
X0Y96D02*
X7Y96D01*
X787Y96D02*
X787Y96D01*
X1074Y96D02*
X1081Y96D01*
X0Y95D02*
X7Y95D01*
X1074Y95D02*
X1081Y95D01*
X0Y94D02*
X7Y94D01*
X1074Y94D02*
X1081Y94D01*
X0Y93D02*
X7Y93D01*
X1074Y93D02*
X1081Y93D01*
X0Y92D02*
X7Y92D01*
X1074Y92D02*
X1081Y92D01*
X0Y91D02*
X7Y91D01*
X1074Y91D02*
X1081Y91D01*
X0Y90D02*
X7Y90D01*
X1074Y90D02*
X1081Y90D01*
X0Y89D02*
X7Y89D01*
X1074Y89D02*
X1081Y89D01*
X0Y88D02*
X7Y88D01*
X1074Y88D02*
X1081Y88D01*
X0Y87D02*
X7Y87D01*
X1074Y87D02*
X1081Y87D01*
X0Y86D02*
X7Y86D01*
X1074Y86D02*
X1081Y86D01*
X0Y85D02*
X7Y85D01*
X1074Y85D02*
X1081Y85D01*
X0Y84D02*
X7Y84D01*
X1074Y84D02*
X1081Y84D01*
X0Y83D02*
X7Y83D01*
X1074Y83D02*
X1081Y83D01*
X0Y82D02*
X7Y82D01*
X1074Y82D02*
X1081Y82D01*
X0Y81D02*
X7Y81D01*
X1074Y81D02*
X1081Y81D01*
X0Y80D02*
X7Y80D01*
X1074Y80D02*
X1081Y80D01*
X0Y79D02*
X7Y79D01*
X1074Y79D02*
X1081Y79D01*
X0Y78D02*
X7Y78D01*
X1074Y78D02*
X1081Y78D01*
X0Y77D02*
X7Y77D01*
X1074Y77D02*
X1081Y77D01*
X0Y76D02*
X7Y76D01*
X1074Y76D02*
X1081Y76D01*
X0Y75D02*
X7Y75D01*
X1074Y75D02*
X1081Y75D01*
X0Y74D02*
X7Y74D01*
X1074Y74D02*
X1081Y74D01*
X0Y73D02*
X7Y73D01*
X1074Y73D02*
X1081Y73D01*
X0Y72D02*
X7Y72D01*
X1074Y72D02*
X1081Y72D01*
X0Y71D02*
X7Y71D01*
X1074Y71D02*
X1081Y71D01*
X0Y70D02*
X7Y70D01*
X1074Y70D02*
X1081Y70D01*
X0Y69D02*
X7Y69D01*
X1074Y69D02*
X1081Y69D01*
X0Y68D02*
X7Y68D01*
X1074Y68D02*
X1081Y68D01*
X0Y67D02*
X7Y67D01*
X1074Y67D02*
X1081Y67D01*
X0Y66D02*
X7Y66D01*
X1074Y66D02*
X1081Y66D01*
X0Y65D02*
X7Y65D01*
X1074Y65D02*
X1081Y65D01*
X0Y64D02*
X7Y64D01*
X1074Y64D02*
X1081Y64D01*
X0Y63D02*
X7Y63D01*
X1074Y63D02*
X1081Y63D01*
X0Y62D02*
X7Y62D01*
X1074Y62D02*
X1081Y62D01*
X0Y61D02*
X7Y61D01*
X1074Y61D02*
X1081Y61D01*
X0Y60D02*
X7Y60D01*
X1074Y60D02*
X1081Y60D01*
X0Y59D02*
X7Y59D01*
X1074Y59D02*
X1081Y59D01*
X0Y58D02*
X7Y58D01*
X1074Y58D02*
X1081Y58D01*
X0Y57D02*
X7Y57D01*
X1074Y57D02*
X1081Y57D01*
X0Y56D02*
X7Y56D01*
X1074Y56D02*
X1081Y56D01*
X0Y55D02*
X7Y55D01*
X1074Y55D02*
X1081Y55D01*
X0Y54D02*
X7Y54D01*
X1074Y54D02*
X1081Y54D01*
X0Y53D02*
X7Y53D01*
X1074Y53D02*
X1081Y53D01*
X0Y52D02*
X7Y52D01*
X1074Y52D02*
X1081Y52D01*
X0Y51D02*
X7Y51D01*
X1074Y51D02*
X1081Y51D01*
X0Y50D02*
X7Y50D01*
X1074Y50D02*
X1081Y50D01*
X0Y49D02*
X7Y49D01*
X1074Y49D02*
X1081Y49D01*
X0Y48D02*
X7Y48D01*
X1074Y48D02*
X1081Y48D01*
X0Y47D02*
X7Y47D01*
X1074Y47D02*
X1081Y47D01*
X0Y46D02*
X7Y46D01*
X1074Y46D02*
X1081Y46D01*
X0Y45D02*
X7Y45D01*
X1074Y45D02*
X1081Y45D01*
X0Y44D02*
X7Y44D01*
X1074Y44D02*
X1081Y44D01*
X0Y43D02*
X7Y43D01*
X1074Y43D02*
X1081Y43D01*
X0Y42D02*
X7Y42D01*
X1074Y42D02*
X1081Y42D01*
X0Y41D02*
X7Y41D01*
X1074Y41D02*
X1081Y41D01*
X0Y40D02*
X7Y40D01*
X1074Y40D02*
X1081Y40D01*
X0Y39D02*
X7Y39D01*
X1074Y39D02*
X1081Y39D01*
X0Y38D02*
X7Y38D01*
X1074Y38D02*
X1081Y38D01*
X0Y37D02*
X7Y37D01*
X1074Y37D02*
X1081Y37D01*
X0Y36D02*
X7Y36D01*
X1074Y36D02*
X1081Y36D01*
X0Y35D02*
X7Y35D01*
X1074Y35D02*
X1081Y35D01*
X0Y34D02*
X7Y34D01*
X1074Y34D02*
X1081Y34D01*
X0Y33D02*
X7Y33D01*
X1074Y33D02*
X1081Y33D01*
X0Y32D02*
X7Y32D01*
X1074Y32D02*
X1081Y32D01*
X0Y31D02*
X7Y31D01*
X1074Y31D02*
X1081Y31D01*
X0Y30D02*
X7Y30D01*
X1074Y30D02*
X1081Y30D01*
X0Y29D02*
X7Y29D01*
X1074Y29D02*
X1081Y29D01*
X0Y28D02*
X7Y28D01*
X1074Y28D02*
X1081Y28D01*
X0Y27D02*
X7Y27D01*
X1074Y27D02*
X1081Y27D01*
X0Y26D02*
X7Y26D01*
X1074Y26D02*
X1081Y26D01*
X0Y25D02*
X7Y25D01*
X1074Y25D02*
X1081Y25D01*
X0Y24D02*
X7Y24D01*
X1074Y24D02*
X1081Y24D01*
X0Y23D02*
X7Y23D01*
X1074Y23D02*
X1081Y23D01*
X0Y22D02*
X7Y22D01*
X1074Y22D02*
X1081Y22D01*
X0Y21D02*
X7Y21D01*
X1074Y21D02*
X1081Y21D01*
X0Y20D02*
X7Y20D01*
X1074Y20D02*
X1081Y20D01*
X0Y19D02*
X7Y19D01*
X1074Y19D02*
X1081Y19D01*
X0Y18D02*
X7Y18D01*
X1074Y18D02*
X1081Y18D01*
X0Y17D02*
X7Y17D01*
X1074Y17D02*
X1081Y17D01*
X0Y16D02*
X7Y16D01*
X1074Y16D02*
X1081Y16D01*
X0Y15D02*
X7Y15D01*
X1074Y15D02*
X1081Y15D01*
X0Y14D02*
X7Y14D01*
X1074Y14D02*
X1081Y14D01*
X0Y13D02*
X7Y13D01*
X1074Y13D02*
X1081Y13D01*
X0Y12D02*
X7Y12D01*
X1074Y12D02*
X1081Y12D01*
X0Y11D02*
X7Y11D01*
X1074Y11D02*
X1081Y11D01*
X0Y10D02*
X7Y10D01*
X1074Y10D02*
X1081Y10D01*
X0Y9D02*
X1081Y9D01*
X0Y8D02*
X1081Y8D01*
X0Y7D02*
X1081Y7D01*
X0Y6D02*
X1081Y6D01*
X0Y5D02*
X1081Y5D01*
X0Y4D02*
X1081Y4D01*
X0Y3D02*
X1081Y3D01*
X0Y2D02*
X1081Y2D01*
D02*
G04 End of Silk1*
M02*