solid ascii
  facet normal -3.272878e-016 -9.542047e-016 -7.637059e-001
    outer loop
      vertex   4.441079e+001 -4.915219e+001 1.332268e-014
      vertex   5.856264e+001 -6.111483e+001 2.220446e-014
      vertex   4.441079e+001 -5.626080e+001 2.220446e-014
    endloop
  endfacet
  facet normal 0.000000e+000 -0.000000e+000 -5.916500e-001
    outer loop
      vertex   4.441079e+001 -5.626080e+001 2.220446e-014
      vertex   5.856264e+001 -6.111483e+001 2.220446e-014
      vertex   2.886688e+001 -6.111483e+001 2.220446e-014
    endloop
  endfacet
  facet normal -0.000000e+000 0.000000e+000 -2.980822e-001
    outer loop
      vertex   4.441079e+001 -5.626080e+001 2.220446e-014
      vertex   2.886688e+001 -6.111483e+001 2.220446e-014
      vertex   3.171079e+001 -5.626080e+001 2.220446e-014
    endloop
  endfacet
  facet normal 0.000000e+000 0.000000e+000 -7.787929e-001
    outer loop
      vertex   3.171079e+001 -5.626080e+001 2.220446e-014
      vertex   2.886688e+001 -6.111483e+001 2.220446e-014
      vertex   -8.288769e-001 -6.111483e+001 2.220446e-014
    endloop
  endfacet
  facet normal 1.843423e-016 -1.235766e-015 -9.890561e-001
    outer loop
      vertex   3.171079e+001 -5.626080e+001 2.220446e-014
      vertex   -8.288769e-001 -6.111483e+001 2.220446e-014
      vertex   3.171079e+001 -4.915219e+001 1.332268e-014
    endloop
  endfacet
  facet normal -1.064893e-016 -2.330078e-016 -7.039704e-001
    outer loop
      vertex   3.171079e+001 -4.915219e+001 1.332268e-014
      vertex   -8.288769e-001 -6.111483e+001 2.220446e-014
      vertex   1.027021e+000 -3.512909e+001 1.332268e-014
    endloop
  endfacet
  facet normal 0.000000e+000 0.000000e+000 -8.074426e-001
    outer loop
      vertex   3.171079e+001 -4.915219e+001 1.332268e-014
      vertex   1.027021e+000 -3.512909e+001 1.332268e-014
      vertex   5.671453e+001 -3.512909e+001 1.332268e-014
    endloop
  endfacet
  facet normal 0.000000e+000 0.000000e+000 -1.000000e+000
    outer loop
      vertex   5.671453e+001 -3.512909e+001 1.332268e-014
      vertex   1.027021e+000 -3.512909e+001 1.332268e-014
      vertex   5.671453e+001 -3.208404e+001 1.332268e-014
    endloop
  endfacet
  facet normal -0.000000e+000 0.000000e+000 -5.459948e-002
    outer loop
      vertex   5.671453e+001 -3.208404e+001 1.332268e-014
      vertex   1.027021e+000 -3.512909e+001 1.332268e-014
      vertex   1.027021e+000 -3.208404e+001 1.332268e-014
    endloop
  endfacet
  facet normal 0.000000e+000 0.000000e+000 -4.891610e-001
    outer loop
      vertex   3.171079e+001 -4.915219e+001 1.332268e-014
      vertex   5.671453e+001 -3.512909e+001 1.332268e-014
      vertex   4.441079e+001 -4.915219e+001 1.332268e-014
    endloop
  endfacet
  facet normal 0.000000e+000 0.000000e+000 -6.972861e-002
    outer loop
      vertex   4.441079e+001 -4.915219e+001 1.332268e-014
      vertex   5.671453e+001 -3.512909e+001 1.332268e-014
      vertex   5.856264e+001 -3.512909e+001 1.332268e-014
    endloop
  endfacet
  facet normal 3.373682e-016 -3.404658e-016 -9.961123e-001
    outer loop
      vertex   4.441079e+001 -4.915219e+001 1.332268e-014
      vertex   5.856264e+001 -3.512909e+001 1.332268e-014
      vertex   5.856264e+001 -6.111483e+001 2.220446e-014
    endloop
  endfacet
  facet normal 0.000000e+000 -2.434891e-017 -7.123843e-002
    outer loop
      vertex   -8.288769e-001 -6.111483e+001 2.220446e-014
      vertex   -8.288769e-001 -3.512909e+001 1.332268e-014
      vertex   1.027021e+000 -3.512909e+001 1.332268e-014
    endloop
  endfacet
  facet normal -0.000000e+000 0.000000e+000 9.459058e-001
    outer loop
      vertex   4.441079e+001 -5.626080e+001 2.000000e+000
      vertex   5.856264e+001 -6.111483e+001 2.000000e+000
      vertex   4.441079e+001 -4.915219e+001 2.000000e+000
    endloop
  endfacet
  facet normal -0.000000e+000 0.000000e+000 9.961123e-001
    outer loop
      vertex   4.441079e+001 -4.915219e+001 2.000000e+000
      vertex   5.856264e+001 -6.111483e+001 2.000000e+000
      vertex   5.856264e+001 -3.512909e+001 2.000000e+000
    endloop
  endfacet
  facet normal 0.000000e+000 0.000000e+000 6.972861e-002
    outer loop
      vertex   4.441079e+001 -4.915219e+001 2.000000e+000
      vertex   5.856264e+001 -3.512909e+001 2.000000e+000
      vertex   5.671453e+001 -3.512909e+001 2.000000e+000
    endloop
  endfacet
  facet normal 0.000000e+000 0.000000e+000 3.244414e-001
    outer loop
      vertex   5.856264e+001 -6.111483e+001 2.000000e+000
      vertex   4.441079e+001 -5.626080e+001 2.000000e+000
      vertex   2.886688e+001 -6.111483e+001 2.000000e+000
    endloop
  endfacet
  facet normal 0.000000e+000 0.000000e+000 6.729108e-001
    outer loop
      vertex   2.886688e+001 -6.111483e+001 2.000000e+000
      vertex   4.441079e+001 -5.626080e+001 2.000000e+000
      vertex   3.171079e+001 -5.626080e+001 2.000000e+000
    endloop
  endfacet
  facet normal 0.000000e+000 -0.000000e+000 8.628188e-001
    outer loop
      vertex   2.886688e+001 -6.111483e+001 2.000000e+000
      vertex   3.171079e+001 -5.626080e+001 2.000000e+000
      vertex   -8.288769e-001 -6.111483e+001 2.000000e+000
    endloop
  endfacet
  facet normal 0.000000e+000 0.000000e+000 2.027988e-001
    outer loop
      vertex   -8.288769e-001 -6.111483e+001 2.000000e+000
      vertex   3.171079e+001 -5.626080e+001 2.000000e+000
      vertex   3.171079e+001 -4.915219e+001 2.000000e+000
    endloop
  endfacet
  facet normal 0.000000e+000 0.000000e+000 9.116173e-001
    outer loop
      vertex   -8.288769e-001 -6.111483e+001 2.000000e+000
      vertex   3.171079e+001 -4.915219e+001 2.000000e+000
      vertex   1.027021e+000 -3.512909e+001 2.000000e+000
    endloop
  endfacet
  facet normal -0.000000e+000 0.000000e+000 4.156675e-001
    outer loop
      vertex   1.027021e+000 -3.512909e+001 2.000000e+000
      vertex   3.171079e+001 -4.915219e+001 2.000000e+000
      vertex   5.671453e+001 -3.512909e+001 2.000000e+000
    endloop
  endfacet
  facet normal 0.000000e+000 0.000000e+000 1.000000e+000
    outer loop
      vertex   1.027021e+000 -3.512909e+001 2.000000e+000
      vertex   5.671453e+001 -3.512909e+001 2.000000e+000
      vertex   1.027021e+000 -3.208404e+001 2.000000e+000
    endloop
  endfacet
  facet normal -0.000000e+000 0.000000e+000 5.459948e-002
    outer loop
      vertex   1.027021e+000 -3.208404e+001 2.000000e+000
      vertex   5.671453e+001 -3.512909e+001 2.000000e+000
      vertex   5.671453e+001 -3.208404e+001 2.000000e+000
    endloop
  endfacet
  facet normal 0.000000e+000 0.000000e+000 4.891610e-001
    outer loop
      vertex   3.171079e+001 -4.915219e+001 2.000000e+000
      vertex   4.441079e+001 -4.915219e+001 2.000000e+000
      vertex   5.671453e+001 -3.512909e+001 2.000000e+000
    endloop
  endfacet
  facet normal -0.000000e+000 0.000000e+000 1.000000e+000
    outer loop
      vertex   -8.288769e-001 -3.512909e+001 2.000000e+000
      vertex   -8.288769e-001 -6.111483e+001 2.000000e+000
      vertex   1.027021e+000 -3.512909e+001 2.000000e+000
    endloop
  endfacet
  facet normal -1.000000e+000 -0.000000e+000 -0.000000e+000
    outer loop
      vertex   -8.288769e-001 -3.512909e+001 2.000000e+000
      vertex   -8.288769e-001 -3.512909e+001 1.332268e-014
      vertex   -8.288769e-001 -6.111483e+001 2.000000e+000
    endloop
  endfacet
  facet normal -9.970512e-001 0.000000e+000 0.000000e+000
    outer loop
      vertex   -8.288769e-001 -6.111483e+001 2.000000e+000
      vertex   -8.288769e-001 -3.512909e+001 1.332268e-014
      vertex   -8.288769e-001 -6.111483e+001 2.220446e-014
    endloop
  endfacet
  facet normal 1.000000e+000 -0.000000e+000 0.000000e+000
    outer loop
      vertex   3.171079e+001 -5.626080e+001 2.000000e+000
      vertex   3.171079e+001 -5.626080e+001 2.220446e-014
      vertex   3.171079e+001 -4.915219e+001 2.000000e+000
    endloop
  endfacet
  facet normal 9.626261e-001 0.000000e+000 0.000000e+000
    outer loop
      vertex   3.171079e+001 -4.915219e+001 2.000000e+000
      vertex   3.171079e+001 -5.626080e+001 2.220446e-014
      vertex   3.171079e+001 -4.915219e+001 1.332268e-014
    endloop
  endfacet
  facet normal 0.000000e+000 -1.000000e+000 0.000000e+000
    outer loop
      vertex   3.171079e+001 -4.915219e+001 2.000000e+000
      vertex   3.171079e+001 -4.915219e+001 1.332268e-014
      vertex   4.441079e+001 -4.915219e+001 2.000000e+000
    endloop
  endfacet
  facet normal 0.000000e+000 -9.878259e-001 -0.000000e+000
    outer loop
      vertex   4.441079e+001 -4.915219e+001 2.000000e+000
      vertex   3.171079e+001 -4.915219e+001 1.332268e-014
      vertex   4.441079e+001 -4.915219e+001 1.332268e-014
    endloop
  endfacet
  facet normal -1.000000e+000 -0.000000e+000 -0.000000e+000
    outer loop
      vertex   4.441079e+001 -4.915219e+001 2.000000e+000
      vertex   4.441079e+001 -4.915219e+001 1.332268e-014
      vertex   4.441079e+001 -5.626080e+001 2.000000e+000
    endloop
  endfacet
  facet normal -9.626261e-001 0.000000e+000 0.000000e+000
    outer loop
      vertex   4.441079e+001 -5.626080e+001 2.000000e+000
      vertex   4.441079e+001 -4.915219e+001 1.332268e-014
      vertex   4.441079e+001 -5.626080e+001 2.220446e-014
    endloop
  endfacet
  facet normal 0.000000e+000 1.000000e+000 0.000000e+000
    outer loop
      vertex   4.441079e+001 -5.626080e+001 2.000000e+000
      vertex   4.441079e+001 -5.626080e+001 2.220446e-014
      vertex   3.171079e+001 -5.626080e+001 2.000000e+000
    endloop
  endfacet
  facet normal 0.000000e+000 9.878259e-001 0.000000e+000
    outer loop
      vertex   3.171079e+001 -5.626080e+001 2.000000e+000
      vertex   4.441079e+001 -5.626080e+001 2.220446e-014
      vertex   3.171079e+001 -5.626080e+001 2.220446e-014
    endloop
  endfacet
  facet normal 1.000000e+000 0.000000e+000 0.000000e+000
    outer loop
      vertex   5.671453e+001 -3.208404e+001 2.000000e+000
      vertex   5.671453e+001 -3.512909e+001 2.000000e+000
      vertex   5.671453e+001 -3.208404e+001 1.332268e-014
    endloop
  endfacet
  facet normal 5.489796e-001 0.000000e+000 0.000000e+000
    outer loop
      vertex   5.671453e+001 -3.208404e+001 1.332268e-014
      vertex   5.671453e+001 -3.512909e+001 2.000000e+000
      vertex   5.671453e+001 -3.512909e+001 1.332268e-014
    endloop
  endfacet
  facet normal -0.000000e+000 1.000000e+000 0.000000e+000
    outer loop
      vertex   5.671453e+001 -3.512909e+001 2.000000e+000
      vertex   5.856264e+001 -3.512909e+001 2.000000e+000
      vertex   5.671453e+001 -3.512909e+001 1.332268e-014
    endloop
  endfacet
  facet normal 0.000000e+000 7.344453e-001 0.000000e+000
    outer loop
      vertex   5.671453e+001 -3.512909e+001 1.332268e-014
      vertex   5.856264e+001 -3.512909e+001 2.000000e+000
      vertex   5.856264e+001 -3.512909e+001 1.332268e-014
    endloop
  endfacet
  facet normal 0.000000e+000 1.000000e+000 -0.000000e+000
    outer loop
      vertex   5.671453e+001 -3.208404e+001 1.332268e-014
      vertex   1.027021e+000 -3.208404e+001 1.332268e-014
      vertex   5.671453e+001 -3.208404e+001 2.000000e+000
    endloop
  endfacet
  facet normal 0.000000e+000 3.589155e-002 0.000000e+000
    outer loop
      vertex   5.671453e+001 -3.208404e+001 2.000000e+000
      vertex   1.027021e+000 -3.208404e+001 1.332268e-014
      vertex   1.027021e+000 -3.208404e+001 2.000000e+000
    endloop
  endfacet
  facet normal -0.000000e+000 1.000000e+000 0.000000e+000
    outer loop
      vertex   -8.288769e-001 -3.512909e+001 2.000000e+000
      vertex   1.027021e+000 -3.512909e+001 2.000000e+000
      vertex   -8.288769e-001 -3.512909e+001 1.332268e-014
    endloop
  endfacet
  facet normal 0.000000e+000 7.330209e-001 0.000000e+000
    outer loop
      vertex   -8.288769e-001 -3.512909e+001 1.332268e-014
      vertex   1.027021e+000 -3.512909e+001 2.000000e+000
      vertex   1.027021e+000 -3.512909e+001 1.332268e-014
    endloop
  endfacet
  facet normal -1.000000e+000 0.000000e+000 0.000000e+000
    outer loop
      vertex   1.027021e+000 -3.208404e+001 1.332268e-014
      vertex   1.027021e+000 -3.512909e+001 1.332268e-014
      vertex   1.027021e+000 -3.208404e+001 2.000000e+000
    endloop
  endfacet
  facet normal -5.489796e-001 -0.000000e+000 0.000000e+000
    outer loop
      vertex   1.027021e+000 -3.208404e+001 2.000000e+000
      vertex   1.027021e+000 -3.512909e+001 1.332268e-014
      vertex   1.027021e+000 -3.512909e+001 2.000000e+000
    endloop
  endfacet
  facet normal 1.000000e+000 0.000000e+000 -0.000000e+000
    outer loop
      vertex   5.856264e+001 -3.512909e+001 1.332268e-014
      vertex   5.856264e+001 -3.512909e+001 2.000000e+000
      vertex   5.856264e+001 -6.111483e+001 2.220446e-014
    endloop
  endfacet
  facet normal 9.970512e-001 0.000000e+000 0.000000e+000
    outer loop
      vertex   5.856264e+001 -6.111483e+001 2.220446e-014
      vertex   5.856264e+001 -3.512909e+001 2.000000e+000
      vertex   5.856264e+001 -6.111483e+001 2.000000e+000
    endloop
  endfacet
  facet normal -0.000000e+000 -1.000000e+000 -0.000000e+000
    outer loop
      vertex   5.856264e+001 -6.111483e+001 2.000000e+000
      vertex   2.886688e+001 -6.111483e+001 2.000000e+000
      vertex   5.856264e+001 -6.111483e+001 2.220446e-014
    endloop
  endfacet
  facet normal 0.000000e+000 -6.719745e-002 0.000000e+000
    outer loop
      vertex   5.856264e+001 -6.111483e+001 2.220446e-014
      vertex   2.886688e+001 -6.111483e+001 2.000000e+000
      vertex   2.886688e+001 -6.111483e+001 2.220446e-014
    endloop
  endfacet
  facet normal 0.000000e+000 -9.977397e-001 0.000000e+000
    outer loop
      vertex   2.886688e+001 -6.111483e+001 2.220446e-014
      vertex   2.886688e+001 -6.111483e+001 2.000000e+000
      vertex   -8.288769e-001 -6.111483e+001 2.000000e+000
    endloop
  endfacet
  facet normal 0.000000e+000 -6.719745e-002 0.000000e+000
    outer loop
      vertex   2.886688e+001 -6.111483e+001 2.220446e-014
      vertex   -8.288769e-001 -6.111483e+001 2.000000e+000
      vertex   -8.288769e-001 -6.111483e+001 2.220446e-014
    endloop
  endfacet
endsolid
