; NON-PLATED HOLES START AT T1
; THROUGH (PLATED) HOLES START AT T100
M48
INCH
T100C0.086614
T101C0.038779
T102C0.038000
T103C0.030000
T104C0.035000
%
T100
X001885Y001760
X020474Y001760
X020474Y023345
X001885Y023345
T101
X004309Y014756
X004309Y018750
X014166Y019754
X004309Y017757
X004309Y004760
X004309Y005764
X004309Y013752
X014166Y009758
X004309Y002763
X004309Y009758
X014166Y016753
X014166Y006757
X004309Y010762
X014166Y011755
X004309Y012759
X004309Y006757
X014166Y013752
X014166Y008754
X004309Y007761
X004309Y015760
X004309Y001760
X004309Y008754
X014166Y001760
X014166Y015760
X004309Y011755
X014166Y012759
X004309Y003767
X014166Y017757
X014166Y005764
X014166Y007761
X014166Y014756
X014166Y004760
X014166Y018750
X014166Y010762
X014166Y002763
X014166Y003767
X004309Y016753
X004309Y019754
T102
X021166Y009760
X021166Y011760
X021166Y012760
X021166Y008760
X021166Y010760
T103
X018180Y003036
X018166Y004198
X017166Y004198
X017178Y003036
T104
X019166Y009760
X019166Y011760
X016166Y012760
X016166Y005760
X019166Y010760
X016166Y010760
X016166Y017760
X019166Y006760
X016166Y011760
X019166Y012760
X019166Y005760
X019166Y016760
X016166Y007760
X016166Y009760
X019166Y015760
X019166Y007760
X019166Y018760
X016166Y008760
X016166Y015760
X016166Y016760
X019166Y017760
X016166Y018760
X016166Y006760
X019166Y008760
T00
M30
