G04 MADE WITH FRITZING*
G04 WWW.FRITZING.ORG*
G04 DOUBLE SIDED*
G04 HOLES PLATED*
G04 CONTOUR ON CENTER OF CONTOUR VECTOR*
%ASAXBY*%
%FSLAX23Y23*%
%MOIN*%
%OFA0B0*%
%SFA1.0B1.0*%
%ADD10C,0.175354*%
%ADD11C,0.081824*%
%ADD12C,0.085000*%
%ADD13C,0.088000*%
%ADD14C,0.080000*%
%ADD15R,0.085000X0.085000*%
%LNMASK0*%
G90*
G70*
G54D10*
X2047Y2335D03*
X189Y2335D03*
X189Y176D03*
X2047Y176D03*
G54D11*
X431Y1975D03*
X431Y1875D03*
X431Y1776D03*
X431Y1675D03*
X431Y1576D03*
X431Y1476D03*
X431Y1375D03*
X431Y1276D03*
X431Y1176D03*
X431Y1076D03*
X431Y976D03*
X431Y875D03*
X431Y776D03*
X431Y676D03*
X431Y576D03*
X431Y476D03*
X431Y377D03*
X431Y276D03*
X431Y176D03*
X1417Y176D03*
X1417Y276D03*
X1417Y377D03*
X1417Y476D03*
X1417Y576D03*
X1417Y676D03*
X1417Y776D03*
X1417Y875D03*
X1417Y976D03*
X1417Y1076D03*
X1417Y1176D03*
X1417Y1276D03*
X1417Y1375D03*
X1417Y1476D03*
X1417Y1576D03*
X1417Y1675D03*
X1417Y1776D03*
X1417Y1875D03*
X1417Y1975D03*
G54D12*
X1617Y1876D03*
X1917Y1876D03*
X1617Y1776D03*
X1917Y1776D03*
X1617Y1676D03*
X1917Y1676D03*
X1617Y1576D03*
X1917Y1576D03*
X1617Y1276D03*
X1917Y1276D03*
X1617Y1176D03*
X1917Y1176D03*
X1617Y1076D03*
X1917Y1076D03*
X1617Y976D03*
X1917Y976D03*
X1617Y876D03*
X1917Y876D03*
X1617Y776D03*
X1917Y776D03*
X1617Y676D03*
X1917Y676D03*
X1617Y576D03*
X1917Y576D03*
G54D13*
X2117Y1276D03*
X2117Y1176D03*
X2117Y1076D03*
X2117Y976D03*
X2117Y876D03*
G54D14*
X1717Y420D03*
X1817Y420D03*
X1718Y304D03*
X1818Y304D03*
G54D15*
X1617Y1876D03*
X1617Y1276D03*
G04 End of Mask0*
M02*