G04 MADE WITH FRITZING*
G04 WWW.FRITZING.ORG*
G04 DOUBLE SIDED*
G04 HOLES PLATED*
G04 CONTOUR ON CENTER OF CONTOUR VECTOR*
%ASAXBY*%
%FSLAX23Y23*%
%MOIN*%
%OFA0B0*%
%SFA1.0B1.0*%
%ADD10C,0.165354*%
%ADD11C,0.071828*%
%ADD12C,0.075000*%
%ADD13C,0.078000*%
%ADD14C,0.070000*%
%ADD15R,0.075000X0.075000*%
%ADD16C,0.048000*%
%LNCOPPER1*%
G90*
G70*
G54D10*
X2047Y2335D03*
X189Y2335D03*
X189Y176D03*
X2047Y176D03*
G54D11*
X431Y1975D03*
X431Y1875D03*
X431Y1776D03*
X431Y1675D03*
X431Y1576D03*
X431Y1476D03*
X431Y1375D03*
X431Y1276D03*
X431Y1176D03*
X431Y1076D03*
X431Y976D03*
X431Y875D03*
X431Y776D03*
X431Y676D03*
X431Y576D03*
X431Y476D03*
X431Y377D03*
X431Y276D03*
X431Y176D03*
X1417Y176D03*
X1417Y276D03*
X1417Y377D03*
X1417Y476D03*
X1417Y576D03*
X1417Y676D03*
X1417Y776D03*
X1417Y875D03*
X1417Y976D03*
X1417Y1076D03*
X1417Y1176D03*
X1417Y1276D03*
X1417Y1375D03*
X1417Y1476D03*
X1417Y1576D03*
X1417Y1675D03*
X1417Y1776D03*
X1417Y1875D03*
X1417Y1975D03*
G54D12*
X1617Y1876D03*
X1917Y1876D03*
X1617Y1776D03*
X1917Y1776D03*
X1617Y1676D03*
X1917Y1676D03*
X1617Y1576D03*
X1917Y1576D03*
X1617Y1276D03*
X1917Y1276D03*
X1617Y1176D03*
X1917Y1176D03*
X1617Y1076D03*
X1917Y1076D03*
X1617Y976D03*
X1917Y976D03*
X1617Y876D03*
X1917Y876D03*
X1617Y776D03*
X1917Y776D03*
X1617Y676D03*
X1917Y676D03*
X1617Y576D03*
X1917Y576D03*
G54D13*
X2117Y1276D03*
X2117Y1176D03*
X2117Y1076D03*
X2117Y976D03*
X2117Y876D03*
G54D14*
X1717Y420D03*
X1817Y420D03*
X1718Y304D03*
X1818Y304D03*
G54D15*
X1617Y1876D03*
X1617Y1276D03*
G54D16*
X1577Y1076D02*
X1458Y1076D01*
D02*
X1577Y1176D02*
X1458Y1176D01*
D02*
X1577Y1276D02*
X1458Y1276D01*
D02*
X1617Y2174D02*
X1716Y2174D01*
D02*
X1917Y2174D02*
X1917Y2177D01*
D02*
X1318Y2174D02*
X1617Y2174D01*
D02*
X1716Y2174D02*
X1917Y2174D01*
D02*
X716Y2177D02*
X1318Y2174D01*
D02*
X1917Y2177D02*
X1917Y1916D01*
D02*
X465Y1999D02*
X716Y2177D01*
D02*
X1920Y1468D02*
X1458Y1475D01*
D02*
X1918Y1536D02*
X1920Y1468D01*
D02*
X1577Y976D02*
X1458Y976D01*
D02*
X1818Y1678D02*
X1818Y2077D01*
D02*
X1818Y2077D02*
X1818Y2076D01*
D02*
X1818Y2076D02*
X1291Y2073D01*
D02*
X1291Y2073D02*
X1293Y1772D01*
D02*
X1293Y1772D02*
X1375Y1775D01*
D02*
X1877Y1677D02*
X1818Y1678D01*
D02*
X1716Y1576D02*
X1656Y1576D01*
D02*
X1716Y1977D02*
X1716Y1576D01*
D02*
X1617Y1977D02*
X1716Y1977D01*
D02*
X1458Y1976D02*
X1617Y1977D01*
D02*
X1837Y451D02*
X1895Y543D01*
D02*
X2075Y1276D02*
X1956Y1276D01*
D02*
X2075Y1176D02*
X1956Y1176D01*
D02*
X2075Y1076D02*
X1956Y1076D01*
D02*
X2075Y976D02*
X1956Y976D01*
D02*
X2117Y577D02*
X1956Y576D01*
D02*
X2117Y835D02*
X2117Y577D01*
D02*
X1697Y451D02*
X1638Y543D01*
D02*
X1818Y341D02*
X1817Y383D01*
D02*
X1717Y341D02*
X1717Y383D01*
D02*
X1762Y571D02*
X1756Y1376D01*
D02*
X1756Y1376D02*
X1458Y1375D01*
D02*
X1645Y575D02*
X1762Y571D01*
D02*
X1052Y65D02*
X461Y171D01*
D02*
X1827Y198D02*
X1594Y62D01*
D02*
X1821Y267D02*
X1827Y198D01*
D02*
X1594Y62D02*
X1052Y65D01*
G04 End of Copper1*
M02*