G04 MADE WITH FRITZING*
G04 WWW.FRITZING.ORG*
G04 DOUBLE SIDED*
G04 HOLES PLATED*
G04 CONTOUR ON CENTER OF CONTOUR VECTOR*
%ASAXBY*%
%FSLAX23Y23*%
%MOIN*%
%OFA0B0*%
%SFA1.0B1.0*%
%ADD10C,0.165354*%
%ADD11C,0.071828*%
%ADD12C,0.075000*%
%ADD13C,0.078000*%
%ADD14C,0.070000*%
%ADD15R,0.075000X0.075000*%
%ADD16R,0.001000X0.001000*%
%LNCOPPER0*%
G90*
G70*
G54D10*
X2047Y2335D03*
X189Y2335D03*
X189Y176D03*
X2047Y176D03*
G54D11*
X431Y1975D03*
X431Y1875D03*
X431Y1776D03*
X431Y1675D03*
X431Y1576D03*
X431Y1476D03*
X431Y1375D03*
X431Y1276D03*
X431Y1176D03*
X431Y1076D03*
X431Y976D03*
X431Y875D03*
X431Y776D03*
X431Y676D03*
X431Y576D03*
X431Y476D03*
X431Y377D03*
X431Y276D03*
X431Y176D03*
X1417Y176D03*
X1417Y276D03*
X1417Y377D03*
X1417Y476D03*
X1417Y576D03*
X1417Y676D03*
X1417Y776D03*
X1417Y875D03*
X1417Y976D03*
X1417Y1076D03*
X1417Y1176D03*
X1417Y1276D03*
X1417Y1375D03*
X1417Y1476D03*
X1417Y1576D03*
X1417Y1675D03*
X1417Y1776D03*
X1417Y1875D03*
X1417Y1975D03*
G54D12*
X1617Y1876D03*
X1917Y1876D03*
X1617Y1776D03*
X1917Y1776D03*
X1617Y1676D03*
X1917Y1676D03*
X1617Y1576D03*
X1917Y1576D03*
X1617Y1276D03*
X1917Y1276D03*
X1617Y1176D03*
X1917Y1176D03*
X1617Y1076D03*
X1917Y1076D03*
X1617Y976D03*
X1917Y976D03*
X1617Y876D03*
X1917Y876D03*
X1617Y776D03*
X1917Y776D03*
X1617Y676D03*
X1917Y676D03*
X1617Y576D03*
X1917Y576D03*
G54D13*
X2117Y1276D03*
X2117Y1176D03*
X2117Y1076D03*
X2117Y976D03*
X2117Y876D03*
G54D14*
X1717Y420D03*
X1817Y420D03*
X1718Y304D03*
X1818Y304D03*
G54D15*
X1617Y1876D03*
X1617Y1276D03*
G54D16*
X884Y1001D02*
X890Y1001D01*
X882Y1000D02*
X892Y1000D01*
X968Y1000D02*
X968Y1000D01*
X881Y999D02*
X893Y999D01*
X965Y999D02*
X972Y999D01*
X880Y998D02*
X895Y998D01*
X963Y998D02*
X973Y998D01*
X880Y997D02*
X896Y997D01*
X962Y997D02*
X974Y997D01*
X879Y996D02*
X897Y996D01*
X961Y996D02*
X975Y996D01*
X879Y995D02*
X898Y995D01*
X960Y995D02*
X976Y995D01*
X879Y994D02*
X900Y994D01*
X958Y994D02*
X976Y994D01*
X879Y993D02*
X901Y993D01*
X957Y993D02*
X976Y993D01*
X879Y992D02*
X902Y992D01*
X956Y992D02*
X976Y992D01*
X879Y991D02*
X903Y991D01*
X955Y991D02*
X977Y991D01*
X879Y990D02*
X904Y990D01*
X954Y990D02*
X976Y990D01*
X880Y989D02*
X906Y989D01*
X952Y989D02*
X976Y989D01*
X880Y988D02*
X907Y988D01*
X951Y988D02*
X976Y988D01*
X881Y987D02*
X908Y987D01*
X950Y987D02*
X975Y987D01*
X882Y986D02*
X909Y986D01*
X949Y986D02*
X975Y986D01*
X884Y985D02*
X910Y985D01*
X948Y985D02*
X974Y985D01*
X885Y984D02*
X912Y984D01*
X946Y984D02*
X973Y984D01*
X886Y983D02*
X913Y983D01*
X945Y983D02*
X972Y983D01*
X887Y982D02*
X914Y982D01*
X944Y982D02*
X970Y982D01*
X888Y981D02*
X915Y981D01*
X943Y981D02*
X969Y981D01*
X890Y980D02*
X916Y980D01*
X941Y980D02*
X968Y980D01*
X891Y979D02*
X918Y979D01*
X940Y979D02*
X967Y979D01*
X892Y978D02*
X919Y978D01*
X939Y978D02*
X966Y978D01*
X893Y977D02*
X920Y977D01*
X938Y977D02*
X964Y977D01*
X894Y976D02*
X921Y976D01*
X937Y976D02*
X963Y976D01*
X896Y975D02*
X922Y975D01*
X935Y975D02*
X962Y975D01*
X897Y974D02*
X924Y974D01*
X934Y974D02*
X961Y974D01*
X898Y973D02*
X925Y973D01*
X933Y973D02*
X959Y973D01*
X899Y972D02*
X926Y972D01*
X932Y972D02*
X958Y972D01*
X901Y971D02*
X927Y971D01*
X931Y971D02*
X957Y971D01*
X902Y970D02*
X956Y970D01*
X903Y969D02*
X955Y969D01*
X904Y968D02*
X953Y968D01*
X905Y967D02*
X952Y967D01*
X907Y966D02*
X951Y966D01*
X908Y965D02*
X950Y965D01*
X909Y964D02*
X949Y964D01*
X910Y963D02*
X947Y963D01*
X911Y962D02*
X946Y962D01*
X913Y961D02*
X945Y961D01*
X914Y960D02*
X944Y960D01*
X915Y959D02*
X943Y959D01*
X915Y958D02*
X943Y958D01*
X913Y957D02*
X944Y957D01*
X912Y956D02*
X945Y956D01*
X911Y955D02*
X947Y955D01*
X910Y954D02*
X948Y954D01*
X909Y953D02*
X949Y953D01*
X907Y952D02*
X950Y952D01*
X906Y951D02*
X951Y951D01*
X905Y950D02*
X953Y950D01*
X904Y949D02*
X954Y949D01*
X903Y948D02*
X955Y948D01*
X901Y947D02*
X956Y947D01*
X900Y946D02*
X927Y946D01*
X931Y946D02*
X957Y946D01*
X899Y945D02*
X926Y945D01*
X932Y945D02*
X959Y945D01*
X898Y944D02*
X925Y944D01*
X933Y944D02*
X960Y944D01*
X897Y943D02*
X923Y943D01*
X934Y943D02*
X961Y943D01*
X895Y942D02*
X922Y942D01*
X936Y942D02*
X962Y942D01*
X894Y941D02*
X921Y941D01*
X937Y941D02*
X963Y941D01*
X893Y940D02*
X920Y940D01*
X938Y940D02*
X965Y940D01*
X892Y939D02*
X919Y939D01*
X939Y939D02*
X966Y939D01*
X891Y938D02*
X917Y938D01*
X940Y938D02*
X967Y938D01*
X889Y937D02*
X916Y937D01*
X942Y937D02*
X968Y937D01*
X888Y936D02*
X915Y936D01*
X943Y936D02*
X969Y936D01*
X887Y935D02*
X914Y935D01*
X944Y935D02*
X971Y935D01*
X886Y934D02*
X913Y934D01*
X945Y934D02*
X972Y934D01*
X885Y933D02*
X911Y933D01*
X947Y933D02*
X973Y933D01*
X883Y932D02*
X910Y932D01*
X948Y932D02*
X974Y932D01*
X882Y931D02*
X909Y931D01*
X949Y931D02*
X975Y931D01*
X881Y930D02*
X908Y930D01*
X950Y930D02*
X976Y930D01*
X880Y929D02*
X907Y929D01*
X951Y929D02*
X976Y929D01*
X880Y928D02*
X905Y928D01*
X953Y928D02*
X976Y928D01*
X879Y927D02*
X904Y927D01*
X954Y927D02*
X976Y927D01*
X879Y926D02*
X903Y926D01*
X955Y926D02*
X977Y926D01*
X879Y925D02*
X902Y925D01*
X956Y925D02*
X976Y925D01*
X879Y924D02*
X900Y924D01*
X957Y924D02*
X976Y924D01*
X879Y923D02*
X899Y923D01*
X959Y923D02*
X976Y923D01*
X879Y922D02*
X898Y922D01*
X960Y922D02*
X976Y922D01*
X879Y921D02*
X897Y921D01*
X961Y921D02*
X975Y921D01*
X880Y920D02*
X896Y920D01*
X962Y920D02*
X974Y920D01*
X881Y919D02*
X894Y919D01*
X964Y919D02*
X973Y919D01*
X881Y918D02*
X893Y918D01*
X965Y918D02*
X971Y918D01*
X883Y917D02*
X892Y917D01*
X884Y916D02*
X890Y916D01*
X884Y876D02*
X890Y876D01*
X1002Y876D02*
X1008Y876D01*
X882Y875D02*
X892Y875D01*
X1000Y875D02*
X1010Y875D01*
X881Y874D02*
X893Y874D01*
X999Y874D02*
X1011Y874D01*
X880Y873D02*
X894Y873D01*
X998Y873D02*
X1012Y873D01*
X880Y872D02*
X894Y872D01*
X998Y872D02*
X1012Y872D01*
X879Y871D02*
X895Y871D01*
X997Y871D02*
X1013Y871D01*
X879Y870D02*
X895Y870D01*
X997Y870D02*
X1013Y870D01*
X879Y869D02*
X895Y869D01*
X997Y869D02*
X1013Y869D01*
X879Y868D02*
X895Y868D01*
X997Y868D02*
X1013Y868D01*
X879Y867D02*
X895Y867D01*
X997Y867D02*
X1013Y867D01*
X879Y866D02*
X895Y866D01*
X997Y866D02*
X1013Y866D01*
X879Y865D02*
X895Y865D01*
X997Y865D02*
X1013Y865D01*
X879Y864D02*
X895Y864D01*
X997Y864D02*
X1013Y864D01*
X879Y863D02*
X895Y863D01*
X997Y863D02*
X1013Y863D01*
X879Y862D02*
X895Y862D01*
X997Y862D02*
X1013Y862D01*
X879Y861D02*
X895Y861D01*
X997Y861D02*
X1013Y861D01*
X879Y860D02*
X895Y860D01*
X997Y860D02*
X1013Y860D01*
X879Y859D02*
X895Y859D01*
X997Y859D02*
X1013Y859D01*
X879Y858D02*
X895Y858D01*
X997Y858D02*
X1013Y858D01*
X879Y857D02*
X895Y857D01*
X997Y857D02*
X1013Y857D01*
X879Y856D02*
X895Y856D01*
X997Y856D02*
X1013Y856D01*
X879Y855D02*
X895Y855D01*
X997Y855D02*
X1013Y855D01*
X879Y854D02*
X895Y854D01*
X997Y854D02*
X1013Y854D01*
X879Y853D02*
X895Y853D01*
X997Y853D02*
X1013Y853D01*
X879Y852D02*
X895Y852D01*
X997Y852D02*
X1013Y852D01*
X879Y851D02*
X895Y851D01*
X997Y851D02*
X1013Y851D01*
X879Y850D02*
X895Y850D01*
X997Y850D02*
X1013Y850D01*
X879Y849D02*
X895Y849D01*
X997Y849D02*
X1013Y849D01*
X879Y848D02*
X895Y848D01*
X997Y848D02*
X1013Y848D01*
X879Y847D02*
X895Y847D01*
X997Y847D02*
X1013Y847D01*
X879Y846D02*
X895Y846D01*
X997Y846D02*
X1013Y846D01*
X879Y845D02*
X895Y845D01*
X997Y845D02*
X1013Y845D01*
X879Y844D02*
X895Y844D01*
X997Y844D02*
X1013Y844D01*
X879Y843D02*
X895Y843D01*
X997Y843D02*
X1013Y843D01*
X879Y842D02*
X895Y842D01*
X945Y842D02*
X948Y842D01*
X997Y842D02*
X1013Y842D01*
X879Y841D02*
X895Y841D01*
X942Y841D02*
X950Y841D01*
X997Y841D02*
X1013Y841D01*
X879Y840D02*
X895Y840D01*
X941Y840D02*
X951Y840D01*
X997Y840D02*
X1013Y840D01*
X879Y839D02*
X895Y839D01*
X940Y839D02*
X952Y839D01*
X997Y839D02*
X1013Y839D01*
X879Y838D02*
X895Y838D01*
X939Y838D02*
X953Y838D01*
X997Y838D02*
X1013Y838D01*
X879Y837D02*
X895Y837D01*
X939Y837D02*
X954Y837D01*
X997Y837D02*
X1013Y837D01*
X879Y836D02*
X895Y836D01*
X938Y836D02*
X954Y836D01*
X997Y836D02*
X1013Y836D01*
X879Y835D02*
X895Y835D01*
X938Y835D02*
X954Y835D01*
X997Y835D02*
X1013Y835D01*
X879Y834D02*
X895Y834D01*
X938Y834D02*
X954Y834D01*
X997Y834D02*
X1013Y834D01*
X879Y833D02*
X895Y833D01*
X938Y833D02*
X954Y833D01*
X997Y833D02*
X1013Y833D01*
X879Y832D02*
X895Y832D01*
X938Y832D02*
X954Y832D01*
X997Y832D02*
X1013Y832D01*
X879Y831D02*
X895Y831D01*
X938Y831D02*
X954Y831D01*
X997Y831D02*
X1013Y831D01*
X879Y830D02*
X895Y830D01*
X938Y830D02*
X954Y830D01*
X997Y830D02*
X1013Y830D01*
X879Y829D02*
X895Y829D01*
X938Y829D02*
X954Y829D01*
X997Y829D02*
X1013Y829D01*
X879Y828D02*
X895Y828D01*
X938Y828D02*
X954Y828D01*
X997Y828D02*
X1013Y828D01*
X879Y827D02*
X895Y827D01*
X938Y827D02*
X954Y827D01*
X997Y827D02*
X1013Y827D01*
X879Y826D02*
X895Y826D01*
X938Y826D02*
X954Y826D01*
X997Y826D02*
X1013Y826D01*
X879Y825D02*
X895Y825D01*
X938Y825D02*
X954Y825D01*
X997Y825D02*
X1013Y825D01*
X879Y824D02*
X895Y824D01*
X938Y824D02*
X954Y824D01*
X997Y824D02*
X1013Y824D01*
X879Y823D02*
X895Y823D01*
X938Y823D02*
X954Y823D01*
X997Y823D02*
X1013Y823D01*
X879Y822D02*
X895Y822D01*
X938Y822D02*
X954Y822D01*
X997Y822D02*
X1013Y822D01*
X879Y821D02*
X895Y821D01*
X938Y821D02*
X954Y821D01*
X997Y821D02*
X1013Y821D01*
X879Y820D02*
X895Y820D01*
X938Y820D02*
X954Y820D01*
X997Y820D02*
X1013Y820D01*
X879Y819D02*
X895Y819D01*
X938Y819D02*
X954Y819D01*
X997Y819D02*
X1013Y819D01*
X879Y818D02*
X895Y818D01*
X938Y818D02*
X954Y818D01*
X997Y818D02*
X1013Y818D01*
X879Y817D02*
X895Y817D01*
X938Y817D02*
X954Y817D01*
X997Y817D02*
X1013Y817D01*
X879Y816D02*
X895Y816D01*
X938Y816D02*
X954Y816D01*
X997Y816D02*
X1013Y816D01*
X879Y815D02*
X895Y815D01*
X938Y815D02*
X954Y815D01*
X997Y815D02*
X1013Y815D01*
X879Y814D02*
X895Y814D01*
X938Y814D02*
X954Y814D01*
X997Y814D02*
X1013Y814D01*
X879Y813D02*
X895Y813D01*
X938Y813D02*
X954Y813D01*
X997Y813D02*
X1013Y813D01*
X879Y812D02*
X895Y812D01*
X938Y812D02*
X954Y812D01*
X997Y812D02*
X1013Y812D01*
X879Y811D02*
X895Y811D01*
X938Y811D02*
X954Y811D01*
X997Y811D02*
X1013Y811D01*
X879Y810D02*
X895Y810D01*
X938Y810D02*
X954Y810D01*
X997Y810D02*
X1013Y810D01*
X879Y809D02*
X895Y809D01*
X938Y809D02*
X954Y809D01*
X997Y809D02*
X1013Y809D01*
X879Y808D02*
X896Y808D01*
X938Y808D02*
X955Y808D01*
X997Y808D02*
X1013Y808D01*
X879Y807D02*
X1013Y807D01*
X879Y806D02*
X1013Y806D01*
X879Y805D02*
X1013Y805D01*
X879Y804D02*
X1013Y804D01*
X879Y803D02*
X1013Y803D01*
X879Y802D02*
X1013Y802D01*
X879Y801D02*
X1013Y801D01*
X879Y800D02*
X1013Y800D01*
X879Y799D02*
X1013Y799D01*
X879Y798D02*
X1013Y798D01*
X879Y797D02*
X1013Y797D01*
X879Y796D02*
X1013Y796D01*
X879Y795D02*
X1013Y795D01*
X879Y794D02*
X1013Y794D01*
X879Y793D02*
X1013Y793D01*
X879Y792D02*
X1013Y792D01*
X879Y791D02*
X1013Y791D01*
X1001Y725D02*
X1008Y725D01*
X998Y724D02*
X1010Y724D01*
X995Y723D02*
X1011Y723D01*
X991Y722D02*
X1012Y722D01*
X988Y721D02*
X1012Y721D01*
X984Y720D02*
X1013Y720D01*
X981Y719D02*
X1013Y719D01*
X978Y718D02*
X1013Y718D01*
X974Y717D02*
X1013Y717D01*
X971Y716D02*
X1013Y716D01*
X967Y715D02*
X1013Y715D01*
X964Y714D02*
X1013Y714D01*
X961Y713D02*
X1013Y713D01*
X957Y712D02*
X1013Y712D01*
X954Y711D02*
X1013Y711D01*
X950Y710D02*
X1013Y710D01*
X947Y709D02*
X1013Y709D01*
X944Y708D02*
X1013Y708D01*
X942Y707D02*
X1013Y707D01*
X941Y706D02*
X1013Y706D01*
X940Y705D02*
X1013Y705D01*
X939Y704D02*
X1013Y704D01*
X939Y703D02*
X1013Y703D01*
X938Y702D02*
X1013Y702D01*
X938Y701D02*
X1013Y701D01*
X938Y700D02*
X1013Y700D01*
X938Y699D02*
X1013Y699D01*
X938Y698D02*
X1013Y698D01*
X938Y697D02*
X1013Y697D01*
X939Y696D02*
X1013Y696D01*
X939Y695D02*
X1012Y695D01*
X940Y694D02*
X1011Y694D01*
X941Y693D02*
X1010Y693D01*
X942Y692D02*
X1009Y692D01*
X945Y691D02*
X1006Y691D01*
X884Y617D02*
X890Y617D01*
X882Y616D02*
X892Y616D01*
X881Y615D02*
X893Y615D01*
X880Y614D02*
X894Y614D01*
X880Y613D02*
X894Y613D01*
X879Y612D02*
X895Y612D01*
X879Y611D02*
X895Y611D01*
X879Y610D02*
X895Y610D01*
X879Y609D02*
X895Y609D01*
X879Y608D02*
X895Y608D01*
X879Y607D02*
X895Y607D01*
X879Y606D02*
X895Y606D01*
X879Y605D02*
X895Y605D01*
X879Y604D02*
X895Y604D01*
X879Y603D02*
X895Y603D01*
X879Y602D02*
X895Y602D01*
X879Y601D02*
X895Y601D01*
X879Y600D02*
X895Y600D01*
X879Y599D02*
X895Y599D01*
X879Y598D02*
X895Y598D01*
X879Y597D02*
X895Y597D01*
X879Y596D02*
X895Y596D01*
X879Y595D02*
X895Y595D01*
X879Y594D02*
X895Y594D01*
X879Y593D02*
X895Y593D01*
X879Y592D02*
X1005Y592D01*
X879Y591D02*
X1009Y591D01*
X879Y590D02*
X1010Y590D01*
X879Y589D02*
X1011Y589D01*
X879Y588D02*
X1012Y588D01*
X879Y587D02*
X1013Y587D01*
X879Y586D02*
X1013Y586D01*
X879Y585D02*
X1013Y585D01*
X879Y584D02*
X1013Y584D01*
X879Y583D02*
X1013Y583D01*
X879Y582D02*
X1013Y582D01*
X879Y581D02*
X1013Y581D01*
X879Y580D02*
X1013Y580D01*
X879Y579D02*
X1013Y579D01*
X879Y578D02*
X1013Y578D01*
X879Y577D02*
X1013Y577D01*
X879Y576D02*
X1013Y576D01*
X879Y575D02*
X1013Y575D01*
X879Y574D02*
X895Y574D01*
X997Y574D02*
X1013Y574D01*
X879Y573D02*
X895Y573D01*
X997Y573D02*
X1013Y573D01*
X879Y572D02*
X895Y572D01*
X997Y572D02*
X1013Y572D01*
X879Y571D02*
X895Y571D01*
X997Y571D02*
X1013Y571D01*
X879Y570D02*
X895Y570D01*
X997Y570D02*
X1013Y570D01*
X879Y569D02*
X895Y569D01*
X997Y569D02*
X1013Y569D01*
X879Y568D02*
X895Y568D01*
X997Y568D02*
X1013Y568D01*
X879Y567D02*
X895Y567D01*
X997Y567D02*
X1013Y567D01*
X879Y566D02*
X895Y566D01*
X997Y566D02*
X1013Y566D01*
X879Y565D02*
X895Y565D01*
X997Y565D02*
X1013Y565D01*
X879Y564D02*
X895Y564D01*
X997Y564D02*
X1013Y564D01*
X879Y563D02*
X895Y563D01*
X997Y563D02*
X1013Y563D01*
X879Y562D02*
X895Y562D01*
X997Y562D02*
X1013Y562D01*
X879Y561D02*
X895Y561D01*
X997Y561D02*
X1013Y561D01*
X879Y560D02*
X895Y560D01*
X997Y560D02*
X1013Y560D01*
X879Y559D02*
X895Y559D01*
X997Y559D02*
X1013Y559D01*
X879Y558D02*
X895Y558D01*
X997Y558D02*
X1013Y558D01*
X879Y557D02*
X895Y557D01*
X997Y557D02*
X1013Y557D01*
X879Y556D02*
X895Y556D01*
X997Y556D02*
X1013Y556D01*
X879Y555D02*
X895Y555D01*
X997Y555D02*
X1013Y555D01*
X880Y554D02*
X895Y554D01*
X998Y554D02*
X1013Y554D01*
X880Y553D02*
X894Y553D01*
X998Y553D02*
X1012Y553D01*
X881Y552D02*
X893Y552D01*
X999Y552D02*
X1011Y552D01*
X882Y551D02*
X893Y551D01*
X1000Y551D02*
X1011Y551D01*
X883Y550D02*
X891Y550D01*
X1001Y550D02*
X1009Y550D01*
X885Y549D02*
X889Y549D01*
X1003Y549D02*
X1007Y549D01*
X905Y501D02*
X950Y501D01*
X902Y500D02*
X954Y500D01*
X899Y499D02*
X956Y499D01*
X897Y498D02*
X958Y498D01*
X896Y497D02*
X960Y497D01*
X895Y496D02*
X961Y496D01*
X894Y495D02*
X962Y495D01*
X893Y494D02*
X963Y494D01*
X891Y493D02*
X964Y493D01*
X890Y492D02*
X965Y492D01*
X890Y491D02*
X966Y491D01*
X889Y490D02*
X967Y490D01*
X888Y489D02*
X968Y489D01*
X887Y488D02*
X969Y488D01*
X886Y487D02*
X969Y487D01*
X885Y486D02*
X970Y486D01*
X884Y485D02*
X971Y485D01*
X884Y484D02*
X972Y484D01*
X883Y483D02*
X905Y483D01*
X950Y483D02*
X972Y483D01*
X882Y482D02*
X904Y482D01*
X952Y482D02*
X973Y482D01*
X882Y481D02*
X903Y481D01*
X953Y481D02*
X974Y481D01*
X881Y480D02*
X902Y480D01*
X954Y480D02*
X974Y480D01*
X881Y479D02*
X901Y479D01*
X955Y479D02*
X974Y479D01*
X880Y478D02*
X900Y478D01*
X956Y478D02*
X975Y478D01*
X880Y477D02*
X899Y477D01*
X957Y477D02*
X975Y477D01*
X880Y476D02*
X898Y476D01*
X957Y476D02*
X976Y476D01*
X880Y475D02*
X898Y475D01*
X958Y475D02*
X976Y475D01*
X879Y474D02*
X897Y474D01*
X959Y474D02*
X976Y474D01*
X879Y473D02*
X896Y473D01*
X959Y473D02*
X976Y473D01*
X879Y472D02*
X896Y472D01*
X959Y472D02*
X976Y472D01*
X879Y471D02*
X896Y471D01*
X960Y471D02*
X976Y471D01*
X879Y470D02*
X895Y470D01*
X960Y470D02*
X976Y470D01*
X879Y469D02*
X895Y469D01*
X960Y469D02*
X977Y469D01*
X879Y468D02*
X895Y468D01*
X960Y468D02*
X977Y468D01*
X879Y467D02*
X895Y467D01*
X960Y467D02*
X977Y467D01*
X879Y466D02*
X895Y466D01*
X960Y466D02*
X977Y466D01*
X879Y465D02*
X895Y465D01*
X960Y465D02*
X977Y465D01*
X879Y464D02*
X895Y464D01*
X960Y464D02*
X977Y464D01*
X879Y463D02*
X895Y463D01*
X960Y463D02*
X977Y463D01*
X879Y462D02*
X895Y462D01*
X960Y462D02*
X977Y462D01*
X879Y461D02*
X895Y461D01*
X960Y461D02*
X977Y461D01*
X879Y460D02*
X895Y460D01*
X960Y460D02*
X977Y460D01*
X879Y459D02*
X895Y459D01*
X960Y459D02*
X977Y459D01*
X879Y458D02*
X895Y458D01*
X960Y458D02*
X977Y458D01*
X879Y457D02*
X895Y457D01*
X960Y457D02*
X977Y457D01*
X879Y456D02*
X895Y456D01*
X960Y456D02*
X977Y456D01*
X879Y455D02*
X895Y455D01*
X960Y455D02*
X977Y455D01*
X879Y454D02*
X895Y454D01*
X960Y454D02*
X977Y454D01*
X879Y453D02*
X895Y453D01*
X960Y453D02*
X977Y453D01*
X879Y452D02*
X895Y452D01*
X960Y452D02*
X977Y452D01*
X879Y451D02*
X895Y451D01*
X960Y451D02*
X977Y451D01*
X879Y450D02*
X895Y450D01*
X960Y450D02*
X977Y450D01*
X879Y449D02*
X895Y449D01*
X960Y449D02*
X977Y449D01*
X879Y448D02*
X895Y448D01*
X960Y448D02*
X977Y448D01*
X879Y447D02*
X895Y447D01*
X960Y447D02*
X977Y447D01*
X879Y446D02*
X895Y446D01*
X960Y446D02*
X976Y446D01*
X879Y445D02*
X896Y445D01*
X960Y445D02*
X976Y445D01*
X879Y444D02*
X896Y444D01*
X959Y444D02*
X976Y444D01*
X879Y443D02*
X897Y443D01*
X959Y443D02*
X976Y443D01*
X879Y442D02*
X897Y442D01*
X958Y442D02*
X976Y442D01*
X880Y441D02*
X898Y441D01*
X958Y441D02*
X976Y441D01*
X880Y440D02*
X899Y440D01*
X957Y440D02*
X975Y440D01*
X880Y439D02*
X900Y439D01*
X956Y439D02*
X975Y439D01*
X881Y438D02*
X900Y438D01*
X955Y438D02*
X975Y438D01*
X881Y437D02*
X901Y437D01*
X954Y437D02*
X974Y437D01*
X881Y436D02*
X902Y436D01*
X953Y436D02*
X974Y436D01*
X882Y435D02*
X903Y435D01*
X952Y435D02*
X973Y435D01*
X883Y434D02*
X905Y434D01*
X951Y434D02*
X973Y434D01*
X883Y433D02*
X907Y433D01*
X949Y433D02*
X972Y433D01*
X884Y432D02*
X971Y432D01*
X885Y431D02*
X971Y431D01*
X885Y430D02*
X970Y430D01*
X886Y429D02*
X969Y429D01*
X887Y428D02*
X968Y428D01*
X888Y427D02*
X967Y427D01*
X889Y426D02*
X966Y426D01*
X890Y425D02*
X966Y425D01*
X890Y424D02*
X965Y424D01*
X891Y423D02*
X964Y423D01*
X892Y422D02*
X963Y422D01*
X893Y421D02*
X962Y421D01*
X895Y420D02*
X960Y420D01*
X896Y419D02*
X959Y419D01*
X898Y418D02*
X957Y418D01*
X900Y417D02*
X955Y417D01*
X903Y416D02*
X952Y416D01*
X909Y415D02*
X946Y415D01*
X896Y376D02*
X901Y376D01*
X988Y376D02*
X994Y376D01*
X892Y375D02*
X905Y375D01*
X986Y375D02*
X998Y375D01*
X890Y374D02*
X907Y374D01*
X985Y374D02*
X1000Y374D01*
X888Y373D02*
X908Y373D01*
X984Y373D02*
X1002Y373D01*
X887Y372D02*
X910Y372D01*
X983Y372D02*
X1003Y372D01*
X885Y371D02*
X911Y371D01*
X983Y371D02*
X1004Y371D01*
X884Y370D02*
X912Y370D01*
X982Y370D02*
X1006Y370D01*
X883Y369D02*
X914Y369D01*
X982Y369D02*
X1007Y369D01*
X883Y368D02*
X915Y368D01*
X982Y368D02*
X1008Y368D01*
X882Y367D02*
X916Y367D01*
X982Y367D02*
X1008Y367D01*
X881Y366D02*
X918Y366D01*
X982Y366D02*
X1009Y366D01*
X881Y365D02*
X919Y365D01*
X982Y365D02*
X1010Y365D01*
X880Y364D02*
X920Y364D01*
X983Y364D02*
X1010Y364D01*
X880Y363D02*
X921Y363D01*
X983Y363D02*
X1011Y363D01*
X880Y362D02*
X923Y362D01*
X984Y362D02*
X1011Y362D01*
X879Y361D02*
X924Y361D01*
X985Y361D02*
X1012Y361D01*
X879Y360D02*
X925Y360D01*
X986Y360D02*
X1012Y360D01*
X879Y359D02*
X927Y359D01*
X989Y359D02*
X1012Y359D01*
X879Y358D02*
X896Y358D01*
X900Y358D02*
X928Y358D01*
X994Y358D02*
X1013Y358D01*
X879Y357D02*
X895Y357D01*
X901Y357D02*
X929Y357D01*
X995Y357D02*
X1013Y357D01*
X879Y356D02*
X895Y356D01*
X902Y356D02*
X930Y356D01*
X996Y356D02*
X1013Y356D01*
X879Y355D02*
X895Y355D01*
X904Y355D02*
X932Y355D01*
X996Y355D02*
X1013Y355D01*
X879Y354D02*
X895Y354D01*
X905Y354D02*
X933Y354D01*
X997Y354D02*
X1013Y354D01*
X879Y353D02*
X895Y353D01*
X906Y353D02*
X934Y353D01*
X997Y353D02*
X1013Y353D01*
X879Y352D02*
X895Y352D01*
X907Y352D02*
X936Y352D01*
X997Y352D02*
X1013Y352D01*
X879Y351D02*
X895Y351D01*
X909Y351D02*
X937Y351D01*
X997Y351D02*
X1013Y351D01*
X879Y350D02*
X895Y350D01*
X910Y350D02*
X938Y350D01*
X997Y350D02*
X1013Y350D01*
X879Y349D02*
X895Y349D01*
X911Y349D02*
X939Y349D01*
X997Y349D02*
X1013Y349D01*
X879Y348D02*
X895Y348D01*
X913Y348D02*
X941Y348D01*
X997Y348D02*
X1013Y348D01*
X879Y347D02*
X895Y347D01*
X914Y347D02*
X942Y347D01*
X997Y347D02*
X1013Y347D01*
X879Y346D02*
X895Y346D01*
X915Y346D02*
X943Y346D01*
X997Y346D02*
X1013Y346D01*
X879Y345D02*
X895Y345D01*
X916Y345D02*
X945Y345D01*
X997Y345D02*
X1013Y345D01*
X879Y344D02*
X895Y344D01*
X918Y344D02*
X946Y344D01*
X997Y344D02*
X1013Y344D01*
X879Y343D02*
X895Y343D01*
X919Y343D02*
X947Y343D01*
X997Y343D02*
X1013Y343D01*
X879Y342D02*
X895Y342D01*
X920Y342D02*
X948Y342D01*
X997Y342D02*
X1013Y342D01*
X879Y341D02*
X895Y341D01*
X922Y341D02*
X950Y341D01*
X997Y341D02*
X1013Y341D01*
X879Y340D02*
X895Y340D01*
X923Y340D02*
X951Y340D01*
X997Y340D02*
X1013Y340D01*
X879Y339D02*
X895Y339D01*
X924Y339D02*
X952Y339D01*
X997Y339D02*
X1013Y339D01*
X879Y338D02*
X895Y338D01*
X925Y338D02*
X954Y338D01*
X997Y338D02*
X1013Y338D01*
X879Y337D02*
X895Y337D01*
X927Y337D02*
X955Y337D01*
X997Y337D02*
X1013Y337D01*
X879Y336D02*
X895Y336D01*
X928Y336D02*
X956Y336D01*
X997Y336D02*
X1013Y336D01*
X879Y335D02*
X895Y335D01*
X929Y335D02*
X957Y335D01*
X997Y335D02*
X1013Y335D01*
X879Y334D02*
X895Y334D01*
X931Y334D02*
X959Y334D01*
X997Y334D02*
X1013Y334D01*
X879Y333D02*
X895Y333D01*
X932Y333D02*
X960Y333D01*
X997Y333D02*
X1013Y333D01*
X879Y332D02*
X895Y332D01*
X933Y332D02*
X961Y332D01*
X997Y332D02*
X1013Y332D01*
X879Y331D02*
X895Y331D01*
X934Y331D02*
X963Y331D01*
X997Y331D02*
X1013Y331D01*
X879Y330D02*
X895Y330D01*
X936Y330D02*
X964Y330D01*
X997Y330D02*
X1013Y330D01*
X879Y329D02*
X895Y329D01*
X937Y329D02*
X965Y329D01*
X997Y329D02*
X1013Y329D01*
X879Y328D02*
X895Y328D01*
X938Y328D02*
X966Y328D01*
X997Y328D02*
X1013Y328D01*
X879Y327D02*
X895Y327D01*
X940Y327D02*
X968Y327D01*
X997Y327D02*
X1013Y327D01*
X879Y326D02*
X895Y326D01*
X941Y326D02*
X969Y326D01*
X997Y326D02*
X1013Y326D01*
X879Y325D02*
X895Y325D01*
X942Y325D02*
X970Y325D01*
X997Y325D02*
X1013Y325D01*
X879Y324D02*
X895Y324D01*
X944Y324D02*
X972Y324D01*
X997Y324D02*
X1013Y324D01*
X879Y323D02*
X895Y323D01*
X945Y323D02*
X973Y323D01*
X997Y323D02*
X1013Y323D01*
X879Y322D02*
X895Y322D01*
X946Y322D02*
X974Y322D01*
X997Y322D02*
X1013Y322D01*
X879Y321D02*
X895Y321D01*
X947Y321D02*
X975Y321D01*
X997Y321D02*
X1013Y321D01*
X879Y320D02*
X895Y320D01*
X949Y320D02*
X977Y320D01*
X997Y320D02*
X1013Y320D01*
X879Y319D02*
X895Y319D01*
X950Y319D02*
X978Y319D01*
X997Y319D02*
X1013Y319D01*
X879Y318D02*
X895Y318D01*
X951Y318D02*
X979Y318D01*
X997Y318D02*
X1013Y318D01*
X879Y317D02*
X895Y317D01*
X953Y317D02*
X981Y317D01*
X997Y317D02*
X1013Y317D01*
X879Y316D02*
X895Y316D01*
X954Y316D02*
X982Y316D01*
X997Y316D02*
X1013Y316D01*
X879Y315D02*
X895Y315D01*
X955Y315D02*
X983Y315D01*
X997Y315D02*
X1013Y315D01*
X879Y314D02*
X895Y314D01*
X956Y314D02*
X984Y314D01*
X997Y314D02*
X1013Y314D01*
X879Y313D02*
X895Y313D01*
X958Y313D02*
X986Y313D01*
X997Y313D02*
X1013Y313D01*
X879Y312D02*
X896Y312D01*
X959Y312D02*
X987Y312D01*
X997Y312D02*
X1013Y312D01*
X879Y311D02*
X896Y311D01*
X960Y311D02*
X988Y311D01*
X997Y311D02*
X1013Y311D01*
X879Y310D02*
X897Y310D01*
X962Y310D02*
X990Y310D01*
X997Y310D02*
X1013Y310D01*
X879Y309D02*
X897Y309D01*
X963Y309D02*
X991Y309D01*
X997Y309D02*
X1013Y309D01*
X879Y308D02*
X899Y308D01*
X964Y308D02*
X992Y308D01*
X996Y308D02*
X1013Y308D01*
X880Y307D02*
X904Y307D01*
X965Y307D02*
X1013Y307D01*
X880Y306D02*
X906Y306D01*
X967Y306D02*
X1013Y306D01*
X880Y305D02*
X907Y305D01*
X968Y305D02*
X1013Y305D01*
X881Y304D02*
X908Y304D01*
X969Y304D02*
X1013Y304D01*
X881Y303D02*
X909Y303D01*
X971Y303D02*
X1012Y303D01*
X882Y302D02*
X909Y302D01*
X972Y302D02*
X1012Y302D01*
X882Y301D02*
X910Y301D01*
X973Y301D02*
X1011Y301D01*
X883Y300D02*
X910Y300D01*
X974Y300D02*
X1011Y300D01*
X884Y299D02*
X910Y299D01*
X976Y299D02*
X1010Y299D01*
X885Y298D02*
X910Y298D01*
X977Y298D02*
X1010Y298D01*
X886Y297D02*
X910Y297D01*
X978Y297D02*
X1009Y297D01*
X887Y296D02*
X910Y296D01*
X980Y296D02*
X1008Y296D01*
X888Y295D02*
X909Y295D01*
X981Y295D02*
X1007Y295D01*
X889Y294D02*
X909Y294D01*
X982Y294D02*
X1006Y294D01*
X891Y293D02*
X908Y293D01*
X984Y293D02*
X1004Y293D01*
X893Y292D02*
X907Y292D01*
X985Y292D02*
X1003Y292D01*
X895Y291D02*
X906Y291D01*
X988Y291D02*
X1000Y291D01*
X900Y290D02*
X903Y290D01*
X992Y290D02*
X996Y290D01*
D02*
G04 End of Copper0*
M02*